<svg height="600" viewBox="0 0 60 40" width="900" xmlns="http://www.w3.org/2000/svg" xmlns:xlink="http://www.w3.org/1999/xlink"><clipPath id="a"><path d="m0 0h60v40h-60zm32.415256 28a8 8 0 1 0 0-16 8 8 0 1 0 0 16"/></clipPath><path d="m0 0h60v40h-60z" fill="#fff"/><path d="m0 0h30v40h-30z" fill="#006233"/><g fill="#d21034"><circle clip-path="url(#a)" cx="30" cy="20" r="10"/><g transform="translate(34.045085 20)"><g id="b"><g id="c"><path id="d" d="m5 0h-5v3z" transform="matrix(.95105652 .30901699 -.30901699 .95105652 .244717 -1.545085)"/><use transform="scale(1 -1)" xlink:href="#d"/></g><use transform="matrix(.30901699 .95105652 -.95105652 .30901699 0 0)" xlink:href="#c"/></g><use transform="matrix(.30901699 -.95105652 .95105652 .30901699 0 0)" xlink:href="#c"/><use transform="matrix(-.80901699 .58778525 -.58778525 -.80901699 0 0)" xlink:href="#b"/></g></g></svg>