<svg height="640" viewBox="0 0 30240 15120" width="1280" xmlns="http://www.w3.org/2000/svg" xmlns:xlink="http://www.w3.org/1999/xlink"><defs><path id="a" d="m0-9 1.735535 5.3961245 5.3009483-2.0075327-3.1367717 4.72132446 4.8746396 2.89277214-5.6470253.4912708.7776278 5.6147606-3.9049537-4.1087198-3.9049537 4.1087198.7776278-5.6147606-5.6470253-.4912708 4.8746396-2.89277214-3.1367717-4.72132446 5.3009483 2.0075327z"/></defs><path d="m0 0h30240v15120h-30240z" fill="#00008b"/><use fill="#fff" transform="matrix(252 0 0 252 7560 11340)" xlink:href="#a"/><use fill="#fff" transform="matrix(120 0 0 120 22680 12600)" xlink:href="#a"/><use fill="#fff" transform="matrix(120 0 0 120 18900 6615)" xlink:href="#a"/><use fill="#fff" transform="matrix(120 0 0 120 22680 2520)" xlink:href="#a"/><use fill="#fff" transform="matrix(120 0 0 120 26040 5607)" xlink:href="#a"/><path d="m0-9 2.351141 5.763932 6.2083676.4549151-4.7552825 4.0172209 1.4858412 6.0450849-5.2900673-3.2811529-5.2900673 3.2811529 1.4858412-6.0450849-4.7552825-4.0172209 6.2083676-.4549151z" fill="#fff" transform="matrix(70 0 0 70 24192 8190)"/><path d="m6300 0h2520v2520h6300v2520h-6300v2520h-2520v-2520h-6300v-2520h6300z" fill="#fff"/><path id="b" d="m0 0h1690.4674l13429.5326 6714.7663v845.2337h-1690.467l-13429.533-6714.7663z" fill="#fff"/><use fill="#fff" transform="matrix(-1 0 0 1 15120 0)" xlink:href="#b"/><path d="m6804 0h1512v3024h6804v1512h-6804v3024h-1512v-3024h-6804v-1512h6804z" fill="#f00"/><path id="c" d="m0 0 5040 2520h-1126.9783l-3913.0217-1956.51087zm15120 0h-1126.978l-5040.0003 2520h1126.9783z" fill="#f00"/><use fill="#f00" transform="matrix(-1 0 0 -1 15120 7560)" xlink:href="#c"/></svg>