<svg height="300" width="600" xmlns="http://www.w3.org/2000/svg" xmlns:xlink="http://www.w3.org/1999/xlink"><path d="m.000023-.000121h600.00006v300.00003h-600.00006z" fill="#fff" fill-rule="evenodd"/><path id="a" d="m600.00013 260.88144c-6.72314 4.04453-12.49922 13.4973-30.35966 13.4973-35.7112 0-44.64172-19.90137-71.42784-19.90137-17.85559 0-26.7843 19.90137-44.64111 19.90137-35.71422 0-44.64292-19.90137-71.42844-19.90137-17.85741 0-26.78612 19.90137-44.64292 19.90137-35.71422 0-44.64293-19.90137-71.42844-19.90137-17.85742 0-26.78612 19.90137-44.64293 19.90137-35.71422 0-44.64293-19.90137-71.42844-19.90137-17.85802 0-26.78612 19.90137-44.64292 19.90137-35.714225 0-44.643536-19.90137-71.428868-19.90137-17.85711 0-23.214273 14.1814-33.92853929 14.1814v25.62134c10.71426629 0 16.07136829-14.18141 33.92853929-14.18141 26.785332 0 35.714643 19.90137 71.428868 19.90137 17.8568 0 26.7849-19.90137 44.64292-19.90137 26.78491 0 35.71422 19.90137 71.42844 19.90137 17.85681 0 26.78551-19.90137 44.64293-19.90137 26.78551 0 35.71422 19.90137 71.42844 19.90137 17.8568 0 26.78551-19.90137 44.64292-19.90137 26.78552 0 35.71422 19.90137 71.42844 19.90137 17.85681 0 26.78552-19.90137 44.64111-19.90137 26.78612 0 35.71664 19.90137 71.42784 19.90137 17.86044 0 23.63652-5.63964 30.35966-9.68417z" fill="#002b7f" fill-rule="evenodd"/><use id="b" height="300" transform="translate(0 -99.50701)" width="600" xlink:href="#a"/><use height="300" transform="translate(0 49.75348)" width="600" xlink:href="#b"/><path id="c" d="m266.07172 130.83824c26.78551 0 35.71422 19.90137 71.42844 19.90137 17.8568 0 26.78551-19.90137 44.64292-19.90137 26.78552 0 35.71422 19.90137 71.42844 19.90137 17.85681 0 26.78552-19.90137 44.64111-19.90137 26.78612 0 35.71664 19.90137 71.42784 19.90137 17.86044 0 23.63652-5.63964 30.35966-9.68417v-29.43446c-6.72314 4.04453-12.49922 13.4973-30.35966 13.4973-35.7112 0-44.64172-19.90137-71.42784-19.90137-17.85559 0-26.7843 19.90137-44.64111 19.90137-35.71422 0-44.64292-19.90137-71.42844-19.90137-17.85741 0-26.78612 19.90137-44.64292 19.90137-35.71422 0-44.64293-19.90137-71.42844-19.90137" fill="#002b7f" fill-rule="evenodd"/><use height="300" transform="translate(0 -49.75352)" width="600" xlink:href="#c"/><use height="300" transform="translate(0 -99.507016)" width="600" xlink:href="#c"/><g transform="matrix(.5 0 0 .5 0 154.7222)"><path id="d" d="m0-309.4444h600v300h-600z" fill="#fff" fill-rule="evenodd"/><path id="e" d="m-238.28967 473.03977-.21429-94.29896 81.77244 46.9639z" fill="#002b7f" fill-rule="evenodd" transform="matrix(2.849371 0 0 2.449656 679.5863 -1202.729)"/><use height="600" transform="matrix(-1 0 0 1 600 -.000002)" width="600" xlink:href="#e"/><use id="f" height="600" transform="matrix(0 -.502146 2.017316 0 621.6497 -9.4444)" width="600" xlink:href="#e"/><use height="600" transform="matrix(1 0 0 -1 0 -318.8888)" width="600" xlink:href="#f"/></g><path d="m177.64 50h22.36l100-50h-22.36z" fill="#ce1126" fill-rule="evenodd"/><path d="m0 0v11.18l77.64 38.82h22.36z" fill="#ce1126" fill-rule="evenodd"/><path d="m300 150.00001v-11.18l-77.64-38.82h-22.36z" fill="#ce1126" fill-rule="evenodd"/><path d="m0 150h22.36l100-50h-22.36z" fill="#ce1126" fill-rule="evenodd"/><g transform="matrix(.5 0 0 .5 0 .000005)"><use id="g" height="300" transform="matrix(1 0 0 .333333 0 203.1481)" width="600" xlink:href="#d"/><use height="300" transform="matrix(0 .5 -1 0 450 0)" width="600" xlink:href="#g"/></g><path id="h" d="m0 60.000004h300v30h-300z" fill="#ce1124" fill-rule="evenodd"/><use height="300" transform="matrix(0 .5 -1 0 225 .000005)" width="600" xlink:href="#h"/><path d="m814.961-301.181-17.717 708.661c0 37.298 80.097 37.298 88.583 0l-17.717-708.661z" fill="#a24300" fill-rule="evenodd" stroke="#fff" stroke-width="6.9349" transform="matrix(.12095481905 0 0 .28726195 347.8386614444 166.0462415776)"/><g transform="matrix(-.13793564691 .03951033215 -.0606507748 -.11426719666 570.30347943356 198.33607118437)"><path d="m496.063 549.213 17.717 70.866 35.433-53.15-17.717 88.583 35.433-35.433-35.433 88.582 35.433-35.433-35.433 88.583 35.433-35.433-35.433 106.299 35.433-35.433-35.433 106.299 35.433-35.433-35.433 106.299-17.716 53.151-17.717 17.72-17.717-17.72-17.716-53.151-35.433-106.299 35.433 35.433-35.433-106.299 35.433 35.433-35.433-106.299 35.433 35.433-35.433-88.583 35.433 35.433-35.433-88.582 35.433 35.433-17.717-88.583 35.433 53.15z" fill="#006d00" fill-rule="evenodd" stroke="#fff" stroke-width="8.25"/><path d="m496.063 549.213v496.067" fill="none" stroke="#000"/><path d="m425.197 868.11 70.866 106.299 70.866-106.299" fill="none" stroke="#000"/><path d="m425.197 797.244 70.866 106.299 70.866-106.299" fill="none" stroke="#000"/><path d="m425.197 726.378 70.866 106.299 70.866-106.299" fill="none" stroke="#000"/><path d="m425.197 673.228 70.866 88.583 70.866-88.583" fill="none" stroke="#000"/><path d="m425.197 620.079 70.866 88.582 70.866-88.582" fill="none" stroke="#000"/><path d="m442.913 566.929 53.15 106.299 53.15-106.299" fill="none" stroke="#000"/></g><path d="m496.063 549.213 17.717 70.866 35.433-53.15-17.717 88.583 35.433-35.433-35.433 88.582 35.433-35.433-35.433 88.583 35.433-35.433-35.433 106.299 35.433-35.433-35.433 106.299 35.433-35.433-35.433 106.299-17.716 53.151-17.717 17.72-17.717-17.72-17.716-53.151-35.433-106.299 35.433 35.433-35.433-106.299 35.433 35.433-35.433-106.299 35.433 35.433-35.433-88.583 35.433 35.433-35.433-88.582 35.433 35.433-17.717-88.583 35.433 53.15z" fill="#006d00" fill-rule="evenodd" stroke="#fff" stroke-width="8.25" transform="matrix(.10372891166 -.1062110079 .12936247315 .08577265411 267.09640433344 64.14244842133)"/><path d="m496.063 549.213v496.067" fill="none" stroke="#000" transform="matrix(.10372891166 -.1062110079 .12936247315 .08577265411 267.09640433344 64.14244842133)"/><path d="m425.197 868.11 70.866 106.299 70.866-106.299" fill="none" stroke="#000" transform="matrix(.10372891166 -.1062110079 .12936247315 .08577265411 267.09640433344 64.14244842133)"/><path d="m425.197 797.244 70.866 106.299 70.866-106.299" fill="none" stroke="#000" transform="matrix(.10372891166 -.1062110079 .12936247315 .08577265411 267.09640433344 64.14244842133)"/><path d="m425.197 726.378 70.866 106.299 70.866-106.299" fill="none" stroke="#000" transform="matrix(.10372891166 -.1062110079 .12936247315 .08577265411 267.09640433344 64.14244842133)"/><path d="m425.197 673.228 70.866 88.583 70.866-88.583" fill="none" stroke="#000" transform="matrix(.10372891166 -.1062110079 .12936247315 .08577265411 267.09640433344 64.14244842133)"/><path d="m425.197 620.079 70.866 88.582 70.866-88.582" fill="none" stroke="#000" transform="matrix(.10372891166 -.1062110079 .12936247315 .08577265411 267.09640433344 64.14244842133)"/><path d="m442.913 566.929 53.15 106.299 53.15-106.299" fill="none" stroke="#000" transform="matrix(.10372891166 -.1062110079 .12936247315 .08577265411 267.09640433344 64.14244842133)"/><path d="m496.063 549.213 17.717 70.866 35.433-53.15-17.717 88.583 35.433-35.433-35.433 88.582 35.433-35.433-35.433 88.583 35.433-35.433-35.433 106.299 35.433-35.433-35.433 106.299 35.433-35.433-35.433 106.299-17.716 53.151-17.717 17.72-17.717-17.72-17.716-53.151-35.433-106.299 35.433 35.433-35.433-106.299 35.433 35.433-35.433-106.299 35.433 35.433-35.433-88.583 35.433 35.433-35.433-88.582 35.433 35.433-17.717-88.583 35.433 53.15z" fill="#006d00" fill-rule="evenodd" stroke="#fff" stroke-width="8.25" transform="matrix(.06650481221 .12632868175 -.14599964046 .06304620555 564.71384791675 -24.51835598582)"/><path d="m496.063 549.213v496.067" fill="none" stroke="#000" transform="matrix(.06650481221 .12632868175 -.14599964046 .06304620555 564.71384791675 -24.51835598582)"/><path d="m425.197 868.11 70.866 106.299 70.866-106.299" fill="none" stroke="#000" transform="matrix(.06650481221 .12632868175 -.14599964046 .06304620555 564.71384791675 -24.51835598582)"/><path d="m425.197 797.244 70.866 106.299 70.866-106.299" fill="none" stroke="#000" transform="matrix(.06650481221 .12632868175 -.14599964046 .06304620555 564.71384791675 -24.51835598582)"/><path d="m425.197 726.378 70.866 106.299 70.866-106.299" fill="none" stroke="#000" transform="matrix(.06650481221 .12632868175 -.14599964046 .06304620555 564.71384791675 -24.51835598582)"/><path d="m425.197 673.228 70.866 88.583 70.866-88.583" fill="none" stroke="#000" transform="matrix(.06650481221 .12632868175 -.14599964046 .06304620555 564.71384791675 -24.51835598582)"/><path d="m425.197 620.079 70.866 88.582 70.866-88.582" fill="none" stroke="#000" transform="matrix(.06650481221 .12632868175 -.14599964046 .06304620555 564.71384791675 -24.51835598582)"/><path d="m442.913 566.929 53.15 106.299 53.15-106.299" fill="none" stroke="#000" transform="matrix(.06650481221 .12632868175 -.14599964046 .06304620555 564.71384791675 -24.51835598582)"/><path d="m496.063 549.213 17.717 70.866 35.433-53.15-17.717 88.583 35.433-35.433-35.433 88.582 35.433-35.433-35.433 88.583 35.433-35.433-35.433 106.299 35.433-35.433-35.433 106.299 35.433-35.433-35.433 106.299-17.716 53.151-17.717 17.72-17.717-17.72-17.716-53.151-35.433-106.299 35.433 35.433-35.433-106.299 35.433 35.433-35.433-106.299 35.433 35.433-35.433-88.583 35.433 35.433-35.433-88.582 35.433 35.433-17.717-88.583 35.433 53.15z" fill="#006d00" fill-rule="evenodd" stroke="#fff" stroke-width="8.25" transform="matrix(-.09188795001 .11397703971 -.13801678243 -.07515743182 637.41191000636 125.23826624639)"/><path d="m496.063 549.213v496.067" fill="none" stroke="#000" transform="matrix(-.09188795001 .11397703971 -.13801678243 -.07515743182 637.41191000636 125.23826624639)"/><path d="m425.197 868.11 70.866 106.299 70.866-106.299" fill="none" stroke="#000" transform="matrix(-.09188795001 .11397703971 -.13801678243 -.07515743182 637.41191000636 125.23826624639)"/><path d="m425.197 797.244 70.866 106.299 70.866-106.299" fill="none" stroke="#000" transform="matrix(-.09188795001 .11397703971 -.13801678243 -.07515743182 637.41191000636 125.23826624639)"/><path d="m425.197 726.378 70.866 106.299 70.866-106.299" fill="none" stroke="#000" transform="matrix(-.09188795001 .11397703971 -.13801678243 -.07515743182 637.41191000636 125.23826624639)"/><path d="m425.197 673.228 70.866 88.583 70.866-88.583" fill="none" stroke="#000" transform="matrix(-.09188795001 .11397703971 -.13801678243 -.07515743182 637.41191000636 125.23826624639)"/><path d="m425.197 620.079 70.866 88.582 70.866-88.582" fill="none" stroke="#000" transform="matrix(-.09188795001 .11397703971 -.13801678243 -.07515743182 637.41191000636 125.23826624639)"/><path d="m442.913 566.929 53.15 106.299 53.15-106.299" fill="none" stroke="#000" transform="matrix(-.09188795001 .11397703971 -.13801678243 -.07515743182 637.41191000636 125.23826624639)"/><path d="m496.063 549.213 17.717 70.866 35.433-53.15-17.717 88.583 35.433-35.433-35.433 88.582 35.433-35.433-35.433 88.583 35.433-35.433-35.433 106.299 35.433-35.433-35.433 106.299 35.433-35.433-35.433 106.299-17.716 53.151-17.717 17.72-17.717-17.72-17.716-53.151-35.433-106.299 35.433 35.433-35.433-106.299 35.433 35.433-35.433-106.299 35.433 35.433-35.433-88.583 35.433 35.433-35.433-88.582 35.433 35.433-17.717-88.583 35.433 53.15z" fill="#006d00" fill-rule="evenodd" stroke="#fff" stroke-width="8.25" transform="matrix(-.09110159332 -.09736611981 .10357979773 -.08861204708 385.46034357719 241.42693210651)"/><path d="m496.063 549.213v496.067" fill="none" stroke="#000" transform="matrix(-.09110159332 -.09736611981 .10357979773 -.08861204708 385.46034357719 241.42693210651)"/><path d="m425.197 868.11 70.866 106.299 70.866-106.299" fill="none" stroke="#000" transform="matrix(-.09110159332 -.09736611981 .10357979773 -.08861204708 385.46034357719 241.42693210651)"/><path d="m425.197 797.244 70.866 106.299 70.866-106.299" fill="none" stroke="#000" transform="matrix(-.09110159332 -.09736611981 .10357979773 -.08861204708 385.46034357719 241.42693210651)"/><path d="m425.197 726.378 70.866 106.299 70.866-106.299" fill="none" stroke="#000" transform="matrix(-.09110159332 -.09736611981 .10357979773 -.08861204708 385.46034357719 241.42693210651)"/><path d="m425.197 673.228 70.866 88.583 70.866-88.583" fill="none" stroke="#000" transform="matrix(-.09110159332 -.09736611981 .10357979773 -.08861204708 385.46034357719 241.42693210651)"/><path d="m425.197 620.079 70.866 88.582 70.866-88.582" fill="none" stroke="#000" transform="matrix(-.09110159332 -.09736611981 .10357979773 -.08861204708 385.46034357719 241.42693210651)"/><path d="m442.913 566.929 53.15 106.299 53.15-106.299" fill="none" stroke="#000" transform="matrix(-.09110159332 -.09736611981 .10357979773 -.08861204708 385.46034357719 241.42693210651)"/><path d="m460.63 549.213 28.643 70.866 42.223-53.15-10.184 88.583 27.9-35.433-17.716 88.582 25.249-35.433-25.249 88.583 35.433-35.433-35.433 106.299 35.433-35.433-35.433 106.299 35.433-35.433-35.433 106.299-17.716 53.151-17.717 17.72-17.717-17.72-17.716-53.151-35.433-106.299 35.433 35.433-35.433-106.299 35.433 35.433-35.433-106.299 35.433 35.433-45.617-88.583 45.617 35.433-53.15-88.582 42.966 35.433-25.25-88.583 35.433 53.15z" fill="#006d00" fill-rule="evenodd" stroke="#fff" stroke-width="8.25" transform="matrix(-.158843174 -.0374836311 -.09201601256 .11973043744 624.70043975959 -9.54642650553)"/><path d="m467.208 584.646 28.855 124.016v336.618" fill="none" stroke="#000" transform="matrix(-.158843174 -.0374836311 -.09201601256 .11973043744 624.70043975959 -9.54642650553)"/><path d="m436.23 885.827 59.833 88.582 60.682-88.582" fill="none" stroke="#000" transform="matrix(-.158843174 -.0374836311 -.09201601256 .11973043744 624.70043975959 -9.54642650553)"/><path d="m434.533 814.961 61.53 88.582 60.682-88.582" fill="none" stroke="#000" transform="matrix(-.158843174 -.0374836311 -.09201601256 .11973043744 624.70043975959 -9.54642650553)"/><path d="m435.381 744.095 60.682 88.582 59.833-88.582" fill="none" stroke="#000" transform="matrix(-.158843174 -.0374836311 -.09201601256 .11973043744 624.70043975959 -9.54642650553)"/><path d="m432.835 690.945 63.228 70.866 53.149-70.866" fill="none" stroke="#000" transform="matrix(-.158843174 -.0374836311 -.09201601256 .11973043744 624.70043975959 -9.54642650553)"/><path d="m425.197 637.796 70.866 70.865 45.406-70.865" fill="none" stroke="#000" transform="matrix(-.158843174 -.0374836311 -.09201601256 .11973043744 624.70043975959 -9.54642650553)"/><path d="m436.124 593.238 53.15 86.886 35.327-95.478" fill="none" stroke="#000" transform="matrix(-.158843174 -.0374836311 -.09201601256 .11973043744 624.70043975959 -9.54642650553)"/><path d="m460.63 549.213 28.643 70.866 42.223-53.15-10.184 88.583 27.9-35.433-17.716 88.582 25.249-35.433-25.249 88.583 35.433-35.433-35.433 106.299 35.433-35.433-35.433 106.299 35.433-35.433-35.433 106.299-17.716 53.151-17.717 17.72-17.717-17.72-17.716-53.151-35.433-106.299 35.433 35.433-35.433-106.299 35.433 35.433-35.433-106.299 35.433 35.433-45.617-88.583 45.617 35.433-53.15-88.582 42.966 35.433-25.25-88.583 35.433 53.15z" fill="#006d00" fill-rule="evenodd" stroke="#fff" stroke-width="8.25" transform="matrix(.15827040108 .03923148002 .0057937603 .14339217112 364.91367709833 -71.76634730048)"/><path d="m467.208 584.646 28.855 124.016v336.618" fill="none" stroke="#000" transform="matrix(.15827040108 .03923148002 .0057937603 .14339217112 364.91367709833 -71.76634730048)"/><path d="m436.23 885.827 59.833 88.582 60.682-88.582" fill="none" stroke="#000" transform="matrix(.15827040108 .03923148002 .0057937603 .14339217112 364.91367709833 -71.76634730048)"/><path d="m434.533 814.961 61.53 88.582 60.682-88.582" fill="none" stroke="#000" transform="matrix(.15827040108 .03923148002 .0057937603 .14339217112 364.91367709833 -71.76634730048)"/><path d="m435.381 744.095 60.682 88.582 59.833-88.582" fill="none" stroke="#000" transform="matrix(.15827040108 .03923148002 .0057937603 .14339217112 364.91367709833 -71.76634730048)"/><path d="m432.835 690.945 63.228 70.866 53.149-70.866" fill="none" stroke="#000" transform="matrix(.15827040108 .03923148002 .0057937603 .14339217112 364.91367709833 -71.76634730048)"/><path d="m425.197 637.796 70.866 70.865 45.406-70.865" fill="none" stroke="#000" transform="matrix(.15827040108 .03923148002 .0057937603 .14339217112 364.91367709833 -71.76634730048)"/><path d="m436.124 593.238 53.15 86.886 35.327-95.478" fill="none" stroke="#000" transform="matrix(.15827040108 .03923148002 .0057937603 .14339217112 364.91367709833 -71.76634730048)"/><path d="m354.331 531.496 88.583 88.583 17.716-53.149v88.582l35.433-35.433-17.716 88.583 35.432-35.434-17.716 88.584 35.433-35.433-17.716 106.299 35.433-35.433-35.433 106.299 35.433-35.433-17.717 106.298-17.716 53.151-17.717 17.72-17.717-17.72-17.716-53.151-53.15-82.294 35.434 11.429-35.433-106.299 35.433 35.433-53.15-106.299 35.433 35.433-53.15-88.584 53.15 35.434-70.866-88.583 53.149 35.433-70.866-70.866 70.866 35.433z" fill="#006d00" fill-rule="evenodd" stroke="#fff" stroke-width="8.25" transform="matrix(.02023207169 -.13744508421 .14298139912 .02441707627 291.49063253184 143.83721486115)"/><path d="m378.962 560.015 63.952 95.497 17.716 53.15 8.859 45.205 8.858 78.811 9.315 70.866 8.401 141.736" fill="none" stroke="#000" transform="matrix(.02023207169 -.13744508421 .14298139912 .02441707627 291.49063253184 143.83721486115)"/><path d="m425.197 903.544 63.665 70.866 50.749-88.583" fill="none" stroke="#000" transform="matrix(.02023207169 -.13744508421 .14298139912 .02441707627 291.49063253184 143.83721486115)"/><path d="m417.082 814.961 70.579 88.583 50.75-88.583" fill="none" stroke="#000" transform="matrix(.02023207169 -.13744508421 .14298139912 .02441707627 291.49063253184 143.83721486115)"/><path d="m407.48 752.443 70.867 80.235 45.948-88.583" fill="none" stroke="#000" transform="matrix(.02023207169 -.13744508421 .14298139912 .02441707627 291.49063253184 143.83721486115)"/><path d="m372.047 637.796 88.583 70.866 25.831-70.866" fill="none" stroke="#000" transform="matrix(.02023207169 -.13744508421 .14298139912 .02441707627 291.49063253184 143.83721486115)"/><path d="m360.618 602.363 82.296 53.149 10.515-53.149" fill="none" stroke="#000" transform="matrix(.02023207169 -.13744508421 .14298139912 .02441707627 291.49063253184 143.83721486115)"/><path d="m389.764 690.945 81.095 70.866 33.946-70.866" fill="none" stroke="#000" transform="matrix(.02023207169 -.13744508421 .14298139912 .02441707627 291.49063253184 143.83721486115)"/><g stroke="#000" transform="matrix(.253333 0 0 .253333 412 157.1807)"><path d="m52.503965 257.67359 98.536255-17.67999 102.64195 17.67999-47.62586 19.8016-87.8615 1.4144z" fill="#9d9d9d" fill-rule="evenodd" stroke-width="1.007639"/><path d="m151.78901 98.44529c-17.22351 5.98669-36.30201-8.425482-67.359484 15.09326 0 0-54.143803-23.162693-58.256392 30.3711-.165278 2.16755 8.570168 15.22347 9.785872 14.29016 6.804262-5.22372-3.229737 5.07266-3.229737 6.56006 0 1.50011.99794 2.33284 1.334824 2.9939.330533.66741 1.163228 1.66538 1.328494 4.49398.165267 2.82862-6.136844 10.54403-3.473494 13.37264 2.656988 2.8286 2.822255 10.98389 2.822255 13.31034 0 2.32646 1.665379 8.81637 2.828606 10.15119 1.163239 1.3285 3.159161 4.65292 3.159161 7.48153s1.163217 10.647.661055 12.63655c-.495799 1.99592 2.993883 4.49399 6.159374 5.49194 3.15914.99798 43.935293 1.70594 101.162186.70799 57.23325-.99795 76.32826 8.05754 99.97415-.54272 3.65496-1.32847 4.32239-4.32236 3.99185-5.98774-.33689-1.65902 0-6.97934.99796-8.31418.99795-1.32851 7.65313-11.97551 6.31827-13.97143 1.25644-1.13426 10.58914 5.38966 4.64504-.43547-1.52437-1.49386.85327-17.21632 1.67324-20.528.82637-3.31804 2.09568-9.54978 3.62121-10.70664 1.5319-1.15687-2.59829-5.48781-2.30588-6.26964.29876-.7882 1.41112-3.22907 2.9621-4.34144 0 0 2.88582-13.52646 1.10601-20.17526-1.76708-6.65519-8.26925-36.58296-48.86138-30.58886 0 0-54.34078-20.899572-71.04529-15.09326z" fill="#c00" stroke-width="1.628669"/><g fill-rule="evenodd"><g fill="#f7d917" transform="matrix(1.085779 0 0 1.085779 6.91471 26.11209)"><g stroke-width="1.241115" transform="matrix(.496967 -.04459677 .08946727 .726775 44.70009 100.5425)"><path d="m49.75.125c-5.092827.8900867-15.156033 29.245307-12.609258 38.75 1.763064 6.579846 4.498063 11.119728 6.046758 13.90625-3.404145-4.685606-11.382431-13.75-22.25-13.75-13.6630805-.000001-15.4303299 29.947882-15.09375 31.875.0014186.006833-.0014843.025332 0 .03125.0015486.004997.0296383.027183.03125.03125.0016791-.000945.0294132.001339.03125 0 .6129636-.714427 6.141407-13.09375 19.65625-13.09375 8.896453.000001 15.829233 7.035483 18.375 10.03125-.000726.944335.022799 1.85815.03125 2.78125-2.003906 2.828474-3.281413 9.53125-9.468913 17.96875-7.476562 10.195315-30.3713533 11.240539-34.218587 11.34375h49.53125c.047419 0 .109467.00293.15625 0 .021875.00202.040484-.001379.0625 0 .046783.00293.108831 0 .15625 0h49.53125c-3.847233-.103212-27.179506-1.148439-34.656066-11.34375-6.1875-8.4375-7.027528-15.140277-9.031434-17.96875.008451-.9231.031976-1.836915.03125-2.78125 2.545766-2.995768 9.478545-10.031251 18.375-10.03125 13.514843 0 19.043288 12.379327 19.65625 13.09375.001837.001339.029571-.000945.03125 0 .001612-.004067.029701-.026253.03125-.03125.001484-.005918-.001419-.024417 0-.03125.33658-1.927117-1.430666-31.875-15.09375-31.875-10.867569 0-18.845855 9.064394-22.25 13.75 1.548695-2.786522 4.290233-8.575332 5.718648-13.90625 2.5872-9.655561-7.439993-38.7427933-12.531148-38.75-.079549.00011261-.169161-.01412836-.25 0zm-6.4375 52.84375c.352307.490387.662214.912414.90625 1.28125.005157.007795.541741 2.976504.546849 2.984237-.002381.063703 2.627231 10.185847 2.624878 10.249531-.264389-.391679-3.737032-13.915144-4.077977-14.515018zm13.375 0c-.340945.599874-4.032328 14.123339-4.296717 14.515018-.002353-.063684 3.392848-13.138815 3.390467-13.202518-.000397-.010617-.437082 2.963605-.43748 2.952987.244036-.368836.991423-3.7751 1.34373-4.265487z"/><path d="m42 67.578191s4-1.859288 8-1.859288 8 1.859288 8 1.859288v4.952988s-4-1.859289-8-1.859289-8 1.859289-8 1.859289z"/></g><g stroke-width="1.241114" transform="matrix(.495379 .05970303 -.06359282 .729495 168.9189 96.59048)"><path d="m49.75.125c-5.092827.8900867-15.156033 29.245307-12.609258 38.75 1.763064 6.579846 4.498063 11.119728 6.046758 13.90625-3.404145-4.685606-11.382431-13.75-22.25-13.75-13.6630805-.000001-15.4303299 29.947882-15.09375 31.875.0014186.006833-.0014843.025332 0 .03125.0015486.004997.0296383.027183.03125.03125.0016791-.000945.0294132.001339.03125 0 .6129636-.714427 6.141407-13.09375 19.65625-13.09375 8.896453.000001 15.829233 7.035483 18.375 10.03125-.000726.944335.022799 1.85815.03125 2.78125-2.003906 2.828474-3.281413 9.53125-9.468913 17.96875-7.476562 10.195315-30.3713533 11.240539-34.218587 11.34375h49.53125c.047419 0 .109467.00293.15625 0 .021875.00202.040484-.001379.0625 0 .046783.00293.108831 0 .15625 0h49.53125c-3.847233-.103212-27.179506-1.148439-34.656066-11.34375-6.1875-8.4375-7.027528-15.140277-9.031434-17.96875.008451-.9231.031976-1.836915.03125-2.78125 2.545766-2.995768 9.478545-10.031251 18.375-10.03125 13.514843 0 19.043288 12.379327 19.65625 13.09375.001837.001339.029571-.000945.03125 0 .001612-.004067.029701-.026253.03125-.03125.001484-.005918-.001419-.024417 0-.03125.33658-1.927117-1.430666-31.875-15.09375-31.875-10.867569 0-18.845855 9.064394-22.25 13.75 1.548695-2.786522 4.290233-8.575332 5.718648-13.90625 2.5872-9.655561-7.439993-38.7427933-12.531148-38.75-.079549.00011261-.169161-.01412836-.25 0zm-6.4375 52.84375c.352307.490387.662214.912414.90625 1.28125.005157.007795.541741 2.976504.546849 2.984237-.002381.063703 2.627231 10.185847 2.624878 10.249531-.264389-.391679-3.737032-13.915144-4.077977-14.515018zm13.375 0c-.340945.599874-4.032328 14.123339-4.296717 14.515018-.002353-.063684 3.392848-13.138815 3.390467-13.202518-.000397-.010617-.437082 2.963605-.43748 2.952987.244036-.368836.991423-3.7751 1.34373-4.265487z"/><path d="m42 67.578191s4-1.859288 8-1.859288 8 1.859288 8 1.859288v4.952988s-4-1.859289-8-1.859289-8 1.859289-8 1.859289z"/></g><path d="m24.307772 134.55964 9.689857-11.8136s.903669 1.16821 0 0c-19.865601-25.681265-20.870463-40.414991-18.634342-47.876219s6.708363-15.544226 18.634342-25.49253c11.925978-9.948305 20.156178-4.419053 31.336783-4.419053 11.180604 0 14.162099 2.487076 23.851958 3.730614 9.689855 1.243538 35.77793 2.487077 35.77793 2.487077v-6.83946s1.02874.191785 0 0c-11.51866-2.147409-26.088075 0-35.77793-2.487076-9.689859-2.487077-17.888969-3.108845-28.3242-3.108845s-17.920056-3.042176-24.628419 1.310207-14.907474 11.813612-20.870464 18.031303c-5.9629899 6.21769-8.9444837 18.65307-8.1991107 26.736068.7453739 8.082998 3.7268687 14.922457 8.1991107 21.140144 4.472243 6.21769 3.726869 11.19184 5.217616 15.54422 1.490747 4.35239 3.726869 13.67892 3.726869 13.05715z" stroke-width=".71481"/><path d="m239.25473 134.55964-9.68986-11.8136s-.90367 1.16821 0 0c19.8656-25.681265 20.87046-40.414991 18.63434-47.876219s-6.70836-15.544226-18.63434-25.49253c-11.92598-9.948305-20.15618-4.419053-31.33678-4.419053-11.18061 0-14.1621 2.487076-23.85196 3.730614s-35.77793 2.487077-35.77793 2.487077v-6.83946s-1.02874.191785 0 0c11.51866-2.147409 26.08807 0 35.77793-2.487076 9.68986-2.487077 17.88897-3.108845 28.3242-3.108845s17.92006-3.042176 24.62842 1.310207 14.90747 11.813612 20.87046 18.031303c5.96299 6.21769 8.94449 18.65307 8.19911 26.736068-.74537 8.082998-3.72686 14.922457-8.19911 21.140144-4.47224 6.21769-3.72687 11.19184-5.21761 15.54422-1.49075 4.35239-3.72687 13.67892-3.72687 13.05715z" stroke-width=".71481"/><path d="m115.55334 38.701004h34.563435v70.893784h-34.563435z" stroke-width=".834961"/><g transform="translate(0 -8)"><path d="m119.68386-15.799146s3.72042 3.028232 6.5756 6.9216745c2.85519 3.8934409 4.84517 8.6520918 4.84517 8.6520918s-4.75866-1.9899814-8.65209-4.8451713c-3.89345-2.8551915-6.92168-6.57559-6.92168-6.57559v26.302362s3.02823-3.720401 6.92168-6.575592c3.89343-2.8551899 8.65209-4.8451713 8.65209-4.8451713s-1.53331 3.926624-2.52374 8.6520923c-.8909 4.250585-8.18274 14.064531-8.18274 14.064531l21.30238 1.428571s-3.54183-11.242517-4.96846-15.493102c-1.53625-4.5772182-2.1666-8.6520923-2.1666-8.6520923s4.75866 1.9899814 8.65209 4.8451713c3.89345 2.855191 6.92168 6.575592 6.92168 6.575592v-26.302362s-3.02823 3.7203985-6.92168 6.57559c-3.89343 2.8551899-8.65209 4.8451713-8.65209 4.8451713s1.98998-4.7586509 4.84517-8.6520918c2.8552-3.8934425 6.5756-6.9216745 6.5756-6.9216745z" stroke-width=".5"/><path d="m150 23.076468a17.142857 17.142857 0 1 1 -34.28571 0 17.142857 17.142857 0 1 1 34.28571 0z" stroke-width=".75" transform="translate(-.022093 8)"/><path d="m116.07419 33.53461h34.10162s.49381-6.595881-1.97431-9.064002c-2.3786 0-10.594 0-10.594 0l-.17857-9.888001h-3.94496-6.09693l-.17857 9.888001s-7.12717.357143-10.41089.357143c-1.48893 4.041643-1.2591 4.380859-1.2591 4.380859z" stroke-width=".5"/></g><g stroke-width=".75"><path d="m110.87688 107.22088s6.21185 5.05616 10.97908 11.55693c4.76724 6.50078 8.08986 14.44617 8.08986 14.44617s-7.94539-3.32262-14.44617-8.08986c-6.50077-4.76723-11.55693-10.97908-11.55693-10.97908v43.91634s5.05616-6.21184 11.55693-10.97908c6.50078-4.76724 14.44617-8.08986 14.44617-8.08986s-3.32262 7.94539-8.08986 14.44617c-4.76723 6.50078-10.97908 11.55694-10.97908 11.55694h43.91634s-6.21185-5.05616-10.97908-11.55694c-4.76724-6.50078-8.08986-14.44617-8.08986-14.44617s7.94539 3.32262 14.44617 8.08986c6.50077 4.76724 11.55694 10.97908 11.55694 10.97908v-43.91634s-5.05617 6.21185-11.55694 10.97908c-6.50078 4.76724-14.44617 8.08986-14.44617 8.08986s3.32262-7.94539 8.08986-14.44617c4.76723-6.50077 10.97908-11.55693 10.97908-11.55693z"/><path d="m27.240452 181.77981 21.624576-3.81299s-6.995471-3.90067-12.819124-9.47487c-5.823664-5.5742-10.475508-12.82191-10.475508-12.82191s8.401648 1.89244 15.63149 5.4584c7.229831 3.56597 13.287861 8.80544 13.287861 8.80544l-7.625993-43.24915s-3.900679 6.99548-9.474866 12.81913c-5.574196 5.82366-12.821911 10.47551-12.821911 10.47551s1.892439-8.40165 5.458406-15.63149c3.565958-7.22983 8.805443-13.28786 8.805443-13.28786l-21.624576 3.813z"/><path d="m226.83929 121.06002s5.23948 6.05801 8.80544 13.28784c3.56596 7.22984 5.4584 15.63149 5.4584 15.63149s-7.24771-4.65184-12.82191-10.4755c-5.57418-5.82366-9.47485-12.81913-9.47485-12.81913l-7.626 43.24915s6.05802-5.23947 13.28786-8.80544c7.22984-3.56596 15.63149-5.4584 15.63149-5.4584s-4.65185 7.24771-10.47551 12.82191c-5.82366 5.57419-12.81913 9.47486-12.81913 9.47486l21.62458 3.813 10.0342-56.90679z"/><path d="m27.463842 179.53267.149886 31.50653s52.648135-17.92822 105.296282-17.92822c52.64812 0 105.29626 17.92822 105.29626 17.92822v-31.50653s-52.68561-17.92822-105.37121-17.92822c-52.685611 0-105.371218 17.92822-105.371218 17.92822z"/></g></g><path d="m2.0203056 723.05243a12.121831 12.121831 0 1 1 -24.2436616 0 12.121831 12.121831 0 1 1 24.2436616 0z" fill="#fff" stroke-width="1.5" transform="matrix(.71795399129 0 0 .71795399129 29.98336607422 -365.1164507474)"/><path d="m2.0203056 723.05243a12.121831 12.121831 0 1 1 -24.2436616 0 12.121831 12.121831 0 1 1 24.2436616 0z" fill="#fff" stroke-width="1.5" transform="matrix(.71795399129 0 0 .71795399129 18.82048303301 -384.9659023801)"/><path d="m2.0203056 723.05243a12.121831 12.121831 0 1 1 -24.2436616 0 12.121831 12.121831 0 1 1 24.2436616 0z" fill="#fff" stroke-width="1.5" transform="matrix(.71795399129 0 0 .71795399129 16.49381390241 -408.2325176816)"/><path d="m2.0203056 723.05243a12.121831 12.121831 0 1 1 -24.2436616 0 12.121831 12.121831 0 1 1 24.2436616 0z" fill="#fff" stroke-width="1.5" transform="matrix(.71795399129 0 0 .71795399129 23.47382780889 -429.9480976816)"/><path d="m2.0203056 723.05243a12.121831 12.121831 0 1 1 -24.2436616 0 12.121831 12.121831 0 1 1 24.2436616 0z" fill="#fff" stroke-width="1.5" transform="matrix(.71795399129 0 0 .71795399129 38.20939064507 -447.785926561)"/><path d="m2.0203056 723.05243a12.121831 12.121831 0 1 1 -24.2436616 0 12.121831 12.121831 0 1 1 24.2436616 0z" fill="#fff" stroke-width="1.5" transform="matrix(.71795399129 0 0 .71795399129 58.37385933904 -460.1947518625)"/><path d="m2.0203056 723.05243a12.121831 12.121831 0 1 1 -24.2436616 0 12.121831 12.121831 0 1 1 24.2436616 0z" fill="#fff" stroke-width="1.5" transform="matrix(.71795399129 0 0 .71795399129 80.86500042095 -458.643716561)"/><path d="m2.0203056 723.05243a12.121831 12.121831 0 1 1 -24.2436616 0 12.121831 12.121831 0 1 1 24.2436616 0z" fill="#fff" stroke-width="1.5" transform="matrix(.71795399129 0 0 .71795399129 103.35613064507 -454.9210146816)"/><path d="m2.0203056 723.05243a12.121831 12.121831 0 1 1 -24.2436616 0 12.121831 12.121831 0 1 1 24.2436616 0z" fill="#fff" stroke-width="1.5" transform="matrix(.71795399129 0 0 .71795399129 125.8472500114 -452.5942988625)"/><path d="m2.0203056 723.05243a12.121831 12.121831 0 1 1 -24.2436616 0 12.121831 12.121831 0 1 1 24.2436616 0z" fill="#fff" stroke-width="1.5" transform="matrix(-.71795399129 0 0 .71795399129 270.0166598977 -365.1164507474)"/><path d="m2.0203056 723.05243a12.121831 12.121831 0 1 1 -24.2436616 0 12.121831 12.121831 0 1 1 24.2436616 0z" fill="#fff" stroke-width="1.5" transform="matrix(-.71795399129 0 0 .71795399129 281.1795537967 -384.9659023801)"/><path d="m2.0203056 723.05243a12.121831 12.121831 0 1 1 -24.2436616 0 12.121831 12.121831 0 1 1 24.2436616 0z" fill="#fff" stroke-width="1.5" transform="matrix(-.71795399129 0 0 .71795399129 283.5062696158 -408.2325176816)"/><path d="m2.0203056 723.05243a12.121831 12.121831 0 1 1 -24.2436616 0 12.121831 12.121831 0 1 1 24.2436616 0z" fill="#fff" stroke-width="1.5" transform="matrix(-.71795399129 0 0 .71795399129 276.5262307364 -429.9480976816)"/><path d="m2.0203056 723.05243a12.121831 12.121831 0 1 1 -24.2436616 0 12.121831 12.121831 0 1 1 24.2436616 0z" fill="#fff" stroke-width="1.5" transform="matrix(-.71795399129 0 0 .71795399129 261.7906896158 -447.785926561)"/><path d="m2.0203056 723.05243a12.121831 12.121831 0 1 1 -24.2436616 0 12.121831 12.121831 0 1 1 24.2436616 0z" fill="#fff" stroke-width="1.5" transform="matrix(-.71795399129 0 0 .71795399129 241.6261449173 -460.1947518625)"/><path d="m2.0203056 723.05243a12.121831 12.121831 0 1 1 -24.2436616 0 12.121831 12.121831 0 1 1 24.2436616 0z" fill="#fff" stroke-width="1.5" transform="matrix(-.71795399129 0 0 .71795399129 219.1349929776 -458.643716561)"/><path d="m2.0203056 723.05243a12.121831 12.121831 0 1 1 -24.2436616 0 12.121831 12.121831 0 1 1 24.2436616 0z" fill="#fff" stroke-width="1.5" transform="matrix(-.71795399129 0 0 .71795399129 196.6439496158 -454.9210146816)"/><path d="m2.0203056 723.05243a12.121831 12.121831 0 1 1 -24.2436616 0 12.121831 12.121831 0 1 1 24.2436616 0z" fill="#fff" stroke-width="1.5" transform="matrix(-.71795399129 0 0 .71795399129 174.1527976761 -452.5942988625)"/><path d="m2.0203056 723.05243a12.121831 12.121831 0 1 1 -24.2436616 0 12.121831 12.121831 0 1 1 24.2436616 0z" fill="#fff" stroke-width="1.5" transform="matrix(.71795399129 0 0 .71795399129 158.39665252575 -384.6604727474)"/><path d="m2.0203056 723.05243a12.121831 12.121831 0 1 1 -24.2436616 0 12.121831 12.121831 0 1 1 24.2436616 0z" fill="#fff" stroke-width="1.5" transform="matrix(.71795399129 0 0 .71795399129 158.39665252575 -400.1668083801)"/><path d="m2.0203056 723.05243a12.121831 12.121831 0 1 1 -24.2436616 0 12.121831 12.121831 0 1 1 24.2436616 0z" fill="#fff" stroke-width="1.5" transform="matrix(.71795399129 0 0 .71795399129 158.39665252575 -412.5756336816)"/><path d="m2.0203056 723.05243a12.121831 12.121831 0 1 1 -24.2436616 0 12.121831 12.121831 0 1 1 24.2436616 0z" fill="#fff" stroke-width="1.5" transform="matrix(.71795399129 0 0 .71795399129 158.39665252575 -423.898788561)"/><path d="m2.0203056 723.05243a12.121831 12.121831 0 1 1 -24.2436616 0 12.121831 12.121831 0 1 1 24.2436616 0z" fill="#fff" stroke-width="1.5" transform="matrix(.71795399129 0 0 .71795399129 158.39665252575 -460.1947518625)"/><path d="m2.0203056 723.05243a12.121831 12.121831 0 1 1 -24.2436616 0 12.121831 12.121831 0 1 1 24.2436616 0z" fill="#fff" stroke-width="1.5" transform="matrix(.71795399129 0 0 .71795399129 158.39665252575 -458.643716561)"/><path d="m2.0203056 723.05243a12.121831 12.121831 0 1 1 -24.2436616 0 12.121831 12.121831 0 1 1 24.2436616 0z" fill="#fff" stroke-width="1.5" transform="matrix(.71795399129 0 0 .71795399129 158.39665252575 -450.5778986816)"/><path d="m2.0203056 723.05243a12.121831 12.121831 0 1 1 -24.2436616 0 12.121831 12.121831 0 1 1 24.2436616 0z" fill="#fff" stroke-width="1.5" transform="matrix(.71795399129 0 0 .71795399129 158.39665252575 -439.5649508625)"/><path d="m143.57142 136.29076a10.357142 10.357142 0 1 1 -20.71428 0 10.357142 10.357142 0 1 1 20.71428 0z" fill="#fff" transform="matrix(1.085779 0 0 1.085779 6.41836024528 23.940532)"/><path d="m143.57142 136.29076a10.357142 10.357142 0 1 1 -20.71428 0 10.357142 10.357142 0 1 1 20.71428 0z" fill="#fff" transform="matrix(1.085779 0 0 1.085779 -111.1249939397 44.33766141809)"/><path d="m143.57142 136.29076a10.357142 10.357142 0 1 1 -20.71428 0 10.357142 10.357142 0 1 1 20.71428 0z" fill="#fff" transform="matrix(1.085779 0 0 1.085779 123.4032700603 44.33766141809)"/><g transform="translate(0 -.00026)"><path d="m134.79076 210.09613h34.761723v15.152546h-34.761723z" fill="#002b7f" stroke-width=".841412"/><path d="m16.04278 233.11084a22.994652 8.5561495 0 1 1 -45.989304 0 22.994652 8.5561495 0 1 1 45.989304 0z" fill="#3e8225" stroke-width="1.5" transform="matrix(-.678154 -.06882792 .02382547 .957698 195.4766 -.830297)"/><path d="m36.937037 229.28499-8.709457 8.70946 10.101295 5.83199 23.492924-6.29491-4.186959-13.30341z" fill="#c00" stroke-width="1.085779"/><path d="m267.40617 229.28499 8.70946 8.70946-10.1013 5.83199-23.49292-6.29491 4.18696-13.30341z" fill="#c00" stroke-width="1.085779"/><path d="m16.04278 233.11084a22.994652 8.5561495 0 1 1 -45.989304 0 22.994652 8.5561495 0 1 1 45.989304 0z" fill="#3e8225" stroke-width="1.5" transform="matrix(.678154 -.06882792 -.02382547 .957698 108.8665 -.830297)"/><g fill="#fff" stroke-width=".7"><path d="m126.20321 214.70358a4.2780747 4.2780747 0 1 1 -8.55615 0 4.2780747 4.2780747 0 1 1 8.55615 0z" transform="translate(1.069518 -3.475935)"/><path d="m126.20321 214.70358a4.2780747 4.2780747 0 1 1 -8.55615 0 4.2780747 4.2780747 0 1 1 8.55615 0z" transform="translate(2.406416 10.16042)"/><path d="m126.20321 214.70358a4.2780747 4.2780747 0 1 1 -8.55615 0 4.2780747 4.2780747 0 1 1 8.55615 0z" transform="translate(-52.40642 6.149728)"/><path d="m126.20321 214.70358a4.2780747 4.2780747 0 1 1 -8.55615 0 4.2780747 4.2780747 0 1 1 8.55615 0z" transform="translate(-47.05882 18.98396)"/><path d="m126.20321 214.70358a4.2780747 4.2780747 0 1 1 -8.55615 0 4.2780747 4.2780747 0 1 1 8.55615 0z" transform="matrix(-1 0 0 1 303.0748 -3.475943)"/><path d="m126.20321 214.70358a4.2780747 4.2780747 0 1 1 -8.55615 0 4.2780747 4.2780747 0 1 1 8.55615 0z" transform="matrix(-1 0 0 1 301.7379 10.16041)"/><path d="m126.20321 214.70358a4.2780747 4.2780747 0 1 1 -8.55615 0 4.2780747 4.2780747 0 1 1 8.55615 0z" transform="matrix(-1 0 0 1 356.5507 6.14972)"/><path d="m126.20321 214.70358a4.2780747 4.2780747 0 1 1 -8.55615 0 4.2780747 4.2780747 0 1 1 8.55615 0z" transform="matrix(-1 0 0 1 351.2031 18.98395)"/></g></g></g><g transform="translate(0 -.00026)"><path d="m238.53778 280.60328c3.26745-.56746 22.97756-5.25285 27.12681-7.76016-2.67744-4.82848-7.48355-8.60556-3.74331-7.01791 2.01404.85492 3.6064-5.7989-2.23942-10.88476-16.97325 5.56663-57.67963 15.73854-108.82886 15.73854-52.344495 0-93.561679-10.70667-110.534924-16.2733-5.845812 5.08586-4.025177 10.86453-4.378457 13.0238-.003084.01663.003637 2.72419 1.069519 4.87887 5.753539 6.25063 24.394119 9.33174 27.661565 9.8992 15.352393 2.66622 30.705416 6.69782 86.148367 6.69782 51.28882 0 72.36633-5.63588 87.71871-8.3021z" fill="#fff" stroke-width="1.713747"/><g transform="matrix(1.085779 0 0 1.085779 -81.34112 -69.11104)"><path d="m132.90625 289.65528c-3.00931.52263-22.1473 7.30043-25.96875 9.60965.00335.01441-.00284.0455 0 .06082.32537 1.98868-3.32149 11.25092 2.0625 15.93499 15.63232-5.12685 59.52546-20.4053 106.63379-20.4053 48.20916 0 88.14014 15.27845 103.77246 20.4053 5.38398-4.68407 1.73713-13.94631 2.0625-15.93499.00284-.01532-.00335-.04641 0-.06082-3.82146-2.30922-22.95944-9.08702-25.96875-9.60965-14.13952-2.45558-28.77213-11.58631-79.83496-11.58631-47.23689 0-68.61928 9.13073-82.75879 11.58631z" fill="#fff" stroke-width="1.578357"/><g fill-rule="evenodd"><g transform="matrix(1.384389 -.143242 .15642 1.267764 -86.62648 -64.7552)"><g stroke-width="1.6"><path d="m115.50802 301.56003a1.8716577 1.8716577 0 1 1 -3.74332 0 1.8716577 1.8716577 0 1 1 3.74332 0z" transform="matrix(.4996 0 0 .4996 56.86367 150.9007)"/><path d="m115.50802 301.56003a1.8716577 1.8716577 0 1 1 -3.74332 0 1.8716577 1.8716577 0 1 1 3.74332 0z" transform="matrix(.4996 0 0 .4996 55.52674 153.307)"/><path d="m115.50802 301.56003a1.8716577 1.8716577 0 1 1 -3.74332 0 1.8716577 1.8716577 0 1 1 3.74332 0z" transform="matrix(.4996 0 0 .4996 57.3984 154.9114)"/></g><path d="m113.51808 303.66868 8.52596-3.1661-4.18461 2.39247 2.68584-.08339-2.49243 1.16873 4.00125.27504z"/></g><g transform="matrix(1.384389 -.143242 .15642 1.267764 -45.03159 -76.65847)"><g stroke-width="1.6"><path d="m115.50802 301.56003a1.8716577 1.8716577 0 1 1 -3.74332 0 1.8716577 1.8716577 0 1 1 3.74332 0z" transform="matrix(.4996 0 0 .4996 56.86367 150.9007)"/><path d="m115.50802 301.56003a1.8716577 1.8716577 0 1 1 -3.74332 0 1.8716577 1.8716577 0 1 1 3.74332 0z" transform="matrix(.4996 0 0 .4996 55.52674 153.307)"/><path d="m115.50802 301.56003a1.8716577 1.8716577 0 1 1 -3.74332 0 1.8716577 1.8716577 0 1 1 3.74332 0z" transform="matrix(.4996 0 0 .4996 57.3984 154.9114)"/></g><path d="m113.51808 303.66868 8.52596-3.1661-4.18461 2.39247 2.68584-.08339-2.49243 1.16873 4.00125.27504z"/></g><g transform="matrix(1.378425 .192343 -.151629 1.268346 100.1696 -120.8592)"><g stroke-width="1.6"><path d="m115.50802 301.56003a1.8716577 1.8716577 0 1 1 -3.74332 0 1.8716577 1.8716577 0 1 1 3.74332 0z" transform="matrix(.4996 0 0 .4996 56.86367 150.9007)"/><path d="m115.50802 301.56003a1.8716577 1.8716577 0 1 1 -3.74332 0 1.8716577 1.8716577 0 1 1 3.74332 0z" transform="matrix(.4996 0 0 .4996 55.52674 153.307)"/><path d="m115.50802 301.56003a1.8716577 1.8716577 0 1 1 -3.74332 0 1.8716577 1.8716577 0 1 1 3.74332 0z" transform="matrix(.4996 0 0 .4996 57.3984 154.9114)"/></g><path d="m113.51808 303.66868 8.52596-3.1661-4.18461 2.39247 2.68584-.08339-2.49243 1.16873 4.00125.27504z"/></g><g transform="matrix(1.384389 .143242 .15642 -1.267764 54.4337 659.4577)"><g stroke-width="1.6"><path d="m115.50802 301.56003a1.8716577 1.8716577 0 1 1 -3.74332 0 1.8716577 1.8716577 0 1 1 3.74332 0z" transform="matrix(.4996 0 0 .4996 56.86367 150.9007)"/><path d="m115.50802 301.56003a1.8716577 1.8716577 0 1 1 -3.74332 0 1.8716577 1.8716577 0 1 1 3.74332 0z" transform="matrix(.4996 0 0 .4996 55.52674 153.307)"/><path d="m115.50802 301.56003a1.8716577 1.8716577 0 1 1 -3.74332 0 1.8716577 1.8716577 0 1 1 3.74332 0z" transform="matrix(.4996 0 0 .4996 57.3984 154.9114)"/></g><path d="m113.51808 303.66868 8.52596-3.1661-4.18461 2.39247 2.68584-.08339-2.49243 1.16873 4.00125.27504z"/></g><g transform="matrix(1.384389 .143242 .15642 -1.267764 96.41226 670.4203)"><g stroke-width="1.6"><path d="m115.50802 301.56003a1.8716577 1.8716577 0 1 1 -3.74332 0 1.8716577 1.8716577 0 1 1 3.74332 0z" transform="matrix(.4996 0 0 .4996 56.86367 150.9007)"/><path d="m115.50802 301.56003a1.8716577 1.8716577 0 1 1 -3.74332 0 1.8716577 1.8716577 0 1 1 3.74332 0z" transform="matrix(.4996 0 0 .4996 55.52674 153.307)"/><path d="m115.50802 301.56003a1.8716577 1.8716577 0 1 1 -3.74332 0 1.8716577 1.8716577 0 1 1 3.74332 0z" transform="matrix(.4996 0 0 .4996 57.3984 154.9114)"/></g><path d="m113.51808 303.66868 8.52596-3.1661-4.18461 2.39247 2.68584-.08339-2.49243 1.16873 4.00125.27504z"/></g></g></g></g></g></svg>