<svg height="600" viewBox="0 0 90 60" width="900" xmlns="http://www.w3.org/2000/svg"><path d="m90 0h-90v60z" fill="#003580"/><path d="m0 60h90v-60z" fill="#009543"/><path d="m0 48 72-48h18v12l-72 48h-18z" fill="#fff"/><path d="m0 51 76.5-51h13.5v9l-76.5 51h-13.5z" fill="#d21034"/><g fill="#ffce00"><path d="m18 6.5 1.552914 4.204445 3.447086-2.864699-.757359 4.417613 4.417613-.757359-2.864699 3.447086 4.204445 1.552914-4.204445 1.552914 2.864699 3.447086-4.417613-.757359.757359 4.417613-3.447086-2.864699-1.552914 4.204445-1.552914-4.204445-3.447086 2.864699.757359-4.417613-4.417613.757359 2.864699-3.447086-4.204445-1.552914 4.204445-1.552914-2.864699-3.447086 4.417613.757359-.757359-4.417613 3.447086 2.864699z"/><circle cx="18" cy="16.5" r="5.5" stroke="#003580"/></g></svg>