<svg height="375" width="750" xmlns="http://www.w3.org/2000/svg" xmlns:xlink="http://www.w3.org/1999/xlink"><linearGradient id="a"><stop offset="0" stop-color="#d5dfff"/><stop offset="1" stop-color="#fff"/></linearGradient><linearGradient id="b"><stop offset="0" stop-color="#474747"/><stop offset="1" stop-color="#f50"/></linearGradient><linearGradient id="c" gradientTransform="matrix(.740869 0 0 1.328594 40.5128 .006107)" gradientUnits="userSpaceOnUse" x1="215.82897" x2="228.969" xlink:href="#b" y1="102.98727" y2="102.98727"/><linearGradient id="d" gradientTransform="matrix(1.510058 0 0 .651839 40.5128 .006107)" gradientUnits="userSpaceOnUse" x1="109.3391" x2="110.93898" xlink:href="#b" y1="218.47326" y2="173.44768"/><linearGradient id="e" gradientTransform="matrix(1.231497 0 0 .799282 40.5128 .006107)" gradientUnits="userSpaceOnUse" x1="125.91286" x2="126.02406" y1="316.38286" y2="337.23196"><stop offset="0" stop-color="#b50000"/><stop offset="1" stop-color="#ffc500"/></linearGradient><linearGradient id="f" gradientTransform="matrix(2.562722 0 0 .38409 40.5128 .006107)" gradientUnits="userSpaceOnUse" x1="117.59699" x2="78.22148" xlink:href="#a" y1="1040.3961" y2="1003.724"/><linearGradient id="g" gradientTransform="matrix(.886342 0 0 1.110535 40.5128 .006107)" gradientUnits="userSpaceOnUse" x1="264.71708" x2="255.03038" xlink:href="#a" y1="245.97613" y2="226.37788"/><linearGradient id="h" gradientTransform="matrix(.559036 0 0 1.760734 40.5128 .006107)" gradientUnits="userSpaceOnUse" x1="407.87428" x2="456.40449" xlink:href="#a" y1="149.37547" y2="147.34778"/><g transform="matrix(.755952 0 0 .755952 0 -.000018)"><path d="m0 .000039h992.12598v496.06296h-992.12598z" fill="#00247d"/><g transform="matrix(8.267717 0 0 8.267722 0 .000023)"><path d="m0 0v3.3541l53.2918 26.6459h6.7082v-3.3541l-53.2918-26.6459zm60 0v3.35405l-53.2918 26.64595h-6.7082v-3.3542l53.2918-26.6458z" fill="#fff"/><path d="m25 0v30h10v-30zm-25 10v10h60v-10z" fill="#fff"/><g fill="#cf142b"><path d="m0 12v6h60v-6zm27-12v30h6v-30z"/><path d="m0 30 20-10h4.4721l-19.99996 10zm0-30 20 10h-4.4721l-15.5279-7.76393zm35.5279 10 20-10h4.4721l-20 10zm24.4721 20-20-10h4.4721l15.5279 7.7639z"/></g></g></g><g transform="matrix(.621005 0 0 .621004 461.4003 21.4823)"><path d="m146.9669 393.0423s-3.3456 8.842-5.2573 8.842c-1.9118 0-8.8419-3.8236-8.8419-3.8236s-5.0184 8.125-7.6471 8.6029c-2.6287.478-9.5588-1.1948-9.5588-1.1948s-6.6912 0-6.9302-.9559c-.2389-.9559.239-2.8677.239-2.8677s-9.55884 7.6471-11.70957 7.1692c-2.15074-.4779-9.31985-9.5588-9.31985-9.5588l-1.19486 4.7794-13.62132-.478-11.94853-7.647s-6.69117 10.9926-6.93014 10.7536c-.23898-.2389-11.70957 2.6287-11.70957 2.6287l-.71691-2.1507-7.64706-4.5405s5.97427-8.3639 5.97427-8.6029c0-.2389-2.86765-1.1948-2.86765-1.1948l-4.30147 3.5845-8.84191 5.7353-8.84191-4.0625 3.82353-7.1691.47794-5.2573 6.93015-10.5148 84.83456-82.4448 41.8199 77.1875z" fill="#6a4c2d" fill-rule="evenodd" stroke="#000"/><path d="m207.2368 398.0373 22.0827-.7927-9.3993-4.643 84.1404-3.1709-11.8906-4.5297-10.5317-14.2688-43.599-3.2841s-3.2841-2.4913-8.6066-1.2456c-.2265-3.3974-4.3033-7.8139-4.3033-7.8139l-26.8388-2.0384-16.7602 11.4377 11.3244 28.9905z" fill="#fff" fill-rule="evenodd" stroke="#000"/><path d="m121.3185 150.7577 2.224-7.5615s3.892-6.5609 3.892-9.452c0-2.8912 2.8912-6.3384 2.8912-6.3384s8.8959-2.5576 10.7863 2.8912c9.5632-14.456 20.7943-.6672 20.7943-.6672l3.1136-3.6696 6.3383-7.7839s9.0072 8.4511 9.1184 9.8967 1.5568.4448 1.5568.4448l9.7855-.7783s4.6443 3.6355 3.6696 10.5638c3.4488 2.0341 6.5608 14.0112 6.5608 14.0112z" fill="url(#d)" fill-rule="evenodd" stroke="#000"/><path d="m207.2542 240.7247c1.686-1.0375 7.0036-2.7236 6.3551-10.5054-.6485-7.7817-7.3927-8.6895-11.1539-8.4302-3.7612.2594-7.1332 3.5018-7.1332 3.5018l-12.4509-7.9115s6.2254-39.2978 12.8399-41.7621c6.2818-4.5267 7.3927-6.4847 7.3927-7.5223s-2.3345-3.6315-2.3345-3.6315l-40.5949-4.7988-38.39 4.5394s-2.983 4.5394-2.5939 6.3551.5188 3.7611 7.3927 9.0787c7.6058 5.8497 12.8399 39.4276 12.8399 39.4276s-10.7648 5.3176-11.4133 4.6691c-.6484-.6485-3.8908-1.297-5.5769-1.0376-1.686.2594-7.263 3.1127-7.263 10.5053 0 7.3927 5.577 11.6727 5.577 11.6727s36.7039-4.2799 42.1512 5.8363c5.3175-12.1914 40.2057-7.9115 44.356-9.9866z" fill="#656263" fill-rule="evenodd" stroke="#000"/><path d="m246.79 199.869s.407-4.266 3.453-6.297c3.047-2.031 23.359-3.047 28.234 0s6.703 18.078 6.703 18.078 3.047 5.281 3.25 9.14.609 6.5.609 6.5 16.25 21.125 16.453 40.218c1.829 13 1.422 47.733-3.656 60.936-.203 16.452-7.109 27.218-7.109 27.218s1.625 2.843 1.422 5.89c-.204 3.047-1.829 5.891-1.829 5.891l23.765 11.781-8.734-3.25s8.938 7.515 8.734 7.312c-.203-.203-9.952-4.672-9.952-4.672s6.093 6.094 5.89 5.891c-.203-.204-14.421-6.5-14.421-6.5s6.702 6.297 6.296 6.093c-.406-.203-10.765-5.078-10.765-5.078s6.5 6.906 6.297 6.5-9.344-4.062-9.344-4.062l.406 3.453s-7.312-.406-7.312-5.891c-3.656-2.031-6.094-4.875-6.094-4.875l-16.858-2.843-19.094-57.077 4.469-96.482 1.219-4.875z" fill-rule="evenodd" stroke="#000" stroke-linejoin="round" stroke-opacity=".978541" stroke-width="1.25"/><path d="m234.031 508.205s-9.779-20.579-14.656-20.867c-4.4-8.387 15.291-76.962 53.381-80.871 20.941 1.725 1.722 24.141-12.047 17.243 1.72 6.035 8.605 14.657 8.605 14.657s-27.252 11.783-35.283 69.838z" fill="#fb0" fill-rule="evenodd" stroke="#000" stroke-width=".993227"/><path d="m102.914 511.196s8.094-23.416 13.009-23.705c4.914-.289-13.009-78.053-52.0353-78.631-21.1032 1.735-1.7345 24.283 12.1415 17.345-1.7345 6.071-8.6725 14.743-8.6725 14.743s27.463 11.853 35.5573 70.248z" fill="#fb0" fill-rule="evenodd" stroke="#000"/><path d="m138.708 364.933c-.094-.188-9.686 3.009-3.479 13.448.47-4.044 4.796-6.489 4.796-6.489s-6.583 7.805.376 14.388c.846-6.206 4.796-8.181 4.796-8.181s-4.89 14.388.094 17.303c.564-5.737 4.232-8.276 4.232-8.276s-4.42 12.884-.47 15.799c.47-4.89 3.761-7.053 3.761-7.053s-1.975 13.354 3.198 14.294c.094-4.701 3.855-9.31 3.855-9.31s-1.693 10.909 6.395 11.379c.094-4.138 1.599-8.84 1.599-8.84s3.667 11.567 9.027 9.686c-.093-3.385.094-9.78 0-9.78s3.386 11.003 9.78 8.934c-.94-3.103.377-6.771.377-6.771s3.385 6.865 9.498 4.608c1.034-2.069-.283-6.112-.283-6.112s8.934 9.216 11.661 3.667c2.728-5.548-7.147-7.429-7.147-7.429h6.677s-2.163-5.642-11.191-6.865c3.104-1.41 6.301-.376 6.301-.376s-1.881-7.053-11.097-7.805c3.574-1.223 7.524-.377 7.524-.377s-1.223-6.676-11.379-8.557c1.599-1.787 5.924-1.223 5.924-1.223s-4.043-6.3-8.651-5.924-46.268-4.232-46.174-4.138z" fill="#00713d" fill-rule="evenodd" stroke="#000"/><g stroke-width="1.25"><path d="m179.804 398.881s3.667 1.787 3.573 3.386" fill="none" stroke="#3ec26d" stroke-linecap="round"/><path d="m181.967 395.966s4.702 3.291 4.608 5.736" fill="none" stroke="#3ec26d" stroke-linecap="round"/><path d="m186.104 394.273s3.762 2.351 3.95 6.019" fill="none" stroke="#3ec26d" stroke-linecap="round"/><path d="m192.405 395.778s1.881 4.044 1.222 4.796" fill="none" stroke="#3ec26d" stroke-linecap="round"/><path d="m196.167 397.941c.282 3.197-.283 3.479-.283 3.479" fill="none" stroke="#3ec26d" stroke-linecap="round"/><path d="m149.805 377.722s4.42 2.821 4.044 6.771" fill="none" stroke="#3ec26d" stroke-linecap="round"/><path d="m149.523 381.108s2.069 1.974 1.599 3.291" fill="none" stroke="#3ec26d" stroke-linecap="round"/><path d="m154.977 377.816s2.915 4.044 1.975 6.865" fill="none" stroke="#3ec26d" stroke-linecap="round"/><path d="m159.961 380.449s1.317 2.539.094 3.95" fill="none" stroke="#3ec26d" stroke-linecap="round"/><path d="m162.312 381.672s1.599 2.539.188 3.385" fill="none" stroke="#3ec26d" stroke-linecap="round"/><path d="m160.526 390.041s4.137.941 4.702 4.044" fill="none" stroke="#3ec26d" stroke-linecap="round"/><path d="m162.971 387.22s4.325.282 4.796 4.89" fill="none" stroke="#3ec26d" stroke-linecap="round"/><path d="m168.707 385.622c.094 0 2.915 4.984 2.445 6.582" fill="none" stroke="#3ec26d" stroke-linecap="round"/><path d="m174.255 386.092s1.129 4.796.282 6.3" fill="none" stroke="#3ec26d" stroke-linecap="round"/><path d="m177.829 387.973c0 .094.094 5.548.094 5.548" fill="none" stroke="#3ec26d" stroke-linecap="round"/><path d="m172.375 380.449s2.727 1.035 2.539 3.668" fill="none" stroke="#3ec26d" stroke-linecap="round"/><path d="m174.914 378.004s3.479 1.975 3.103 5.737" fill="none" stroke="#3ec26d" stroke-linecap="round"/><path d="m178.957 376.406s3.01 3.573 1.881 7.523" fill="none" stroke="#3ec26d" stroke-linecap="round"/><path d="m184.224 377.252s-1.129 4.42-.659 6.207" fill="none" stroke="#3ec26d" stroke-linecap="round"/><path d="m187.421 380.261s-1.975 1.505-.941 3.386" fill="none" stroke="#3ec26d" stroke-linecap="round"/><path d="m170.306 397.471s.658 3.385 0 3.949" fill="none" stroke="#3ec26d" stroke-linecap="round"/><path d="m165.98 395.496s2.163 3.761 1.41 5.642" fill="none" stroke="#3ec26d" stroke-linecap="round"/><path d="m161.372 395.308s2.445 2.821 2.351 5.078" fill="none" stroke="#3ec26d" stroke-linecap="round"/><path d="m157.61 395.872s2.257 2.163 2.069 3.385" fill="none" stroke="#3ec26d" stroke-linecap="round"/><path d="m155.635 399.163s2.163 2.257 2.069 2.727" fill="none" stroke="#3ec26d" stroke-linecap="round"/></g><path d="m108.863 244.779c10.368-.185 20.735-.37 31.103-.555 0 0 20.551 0 22.773 6.665 3.887-8.887 21.661-8.331 21.661-8.331 10.738-.37 21.476-.741 32.214-1.111.185 25.92.371 51.839.556 77.759-6.295 30.178-28.142 51.469-52.21 60.541-28.696-9.258-46.841-33.511-52.765-61.097-1.111-24.624-2.221-49.247-3.332-73.871z" fill="#fff" fill-rule="evenodd" stroke="#000"/><path d="m119.944 244.488 45.307 120.738 40.93-123.369c-12.696.819-39.939-1.998-43.323 9.587-5.236-10.369-33.895-6.189-42.914-6.956z" fill="#006b00" fill-rule="evenodd" stroke="#000"/><path d="m150.784 309.86c1.742.912 1.695-32.768 3.983-33.813.654-2.789.982-4.01 1.799-6.972-1.962-3.487-10.79-3.312-14.06-.349 1.471 4.706 2.125 6.275 2.125 6.275 4.415 7.146 3.538 35.619 6.153 34.859z" fill="#ffc900" fill-rule="evenodd" stroke="#006b00" stroke-linecap="round" stroke-width=".689179"/><path d="m138.645 49.5475s3.201-3.6371 3.346-4.51c.146-.8729 14.549-1.4548 23.132-17.458 4.801-8.438 0-3.4915 0-3.4915l-.291-4.0735s5.965-5.6739 3.783-8.7291c-2.182-3.05504-1.455 3.9281-4.947 3.7826-3.491-.1455-1.6-7.56502-1.6-7.56502s-.29-.87296-1.309-1.30936c-1.455.14549-1.019 2.76413-2.328 3.05511-1.309.29099-2.473-6.1103-2.473-6.1103s-2.182-2.909624-4.074 6.2558c1.019 9.74727 7.274 7.85607 7.274 14.25737 0 6.4012-5.528 11.3476-7.128 11.4931-1.601.1455-1.019-5.3828-1.019-5.3828s-.872-2.6188-1.454-2.6188 3.2-.5818 2.619-7.856c-1.31-8.729-2.328 2.0366-4.656 1.6002s-.582-8.0015.291-8.8744-1.019-4.50992-6.111 4.801c-.436 4.51-1.018-1.164-2.036-.873-1.746 3.6372-1.455 6.2558 1.018 9.6019 3.637 3.3461 5.965 6.6923 5.819 8.438-.145 1.7458-2.036 5.6739-4.655 5.6739s.145-4.8009 0-6.4013c-.146-1.6003-4.51-7.4195-4.51-7.4195s-3.055-4.9466-2.764-5.092c.291-.1455-.291-.8729-1.746 4.219s-3.201-3.3461-3.201-3.3461-2.036 6.2557 2.328 10.0383c-3.346-.4364-3.637.873-3.637.873 0 1.7458 4.51 2.473 5.092 5.5282s-4.655 4.8011-4.655 4.8011 2.182 3.0551 8.292-2.9097c.146 3.7825-2.328 6.4012-2.328 6.4012 2.037.9214 3.637.8243 3.928 3.2006z" fill="#cdad56" fill-rule="evenodd" stroke="#000" stroke-linejoin="round" stroke-width="1.25"/><path d="m118.679 49.5475s-2.718-4.0369-2.842-4.8312c-.123-.7943-13.375 1.0038-19.6455-15.1584-4.0774-7.6781 0-3.1771 0-3.1771l.2471-3.7066s-4.3386-5.3083-2.4854-8.0884c1.8531-2.7799 1.0901 3.5743 3.4741 3.5874 2.9647-.1324 1.3588-6.8838 1.3588-6.8838s.2462-.7944 1.1122-1.1914c1.2347.1323 1.7377 4.1153 2.8507 4.3801 1.111.2649 3.408-4.68715 4.136-5.70552 1.018-.14564.98-4.10232 2.587 4.23772-.865 8.8695-8.214 7.1486-8.214 12.9734s4.695 10.3257 6.053 10.4581c1.36.1324.865-4.898.865-4.898s.741-2.383 1.235-2.383c.495 0-4.317.9254-3.824-5.6936 1.113-6.1971 3.578.3983 5.554.0012 1.978-.3971-.231-6.5536.335-7.4933.132-.9398 3.047-4.9766 4.172 3.9322.371 4.1039 2.61-3.5323 3.475-3.2675 1.483 3.3095-.656 7.7291-2.756 10.7738-3.088 3.0449-4.484 6.3806-4.36 7.9691.123 1.5886.856 3.5626 3.081 3.5626 2.224 0 .749-2.7682.873-4.2245.123-1.4562 3.83-6.1694 3.83-6.1694.727-1.1639.122-3.3372.893-4.3424 1.207.013 1.702-1.6672 2.938 2.9661 1.235 4.6334 2.717-3.0447 2.717-3.0447s1.73 5.6923-1.976 9.1342c2.842-.3971 3.088.7944 3.088.7944 0 1.5886-1.356 2.2503-1.851 5.0304-.495 2.78 1.48 4.3687 1.48 4.3687s-1.853 2.7799-7.042-2.6477c-.124 3.4419 1.977 5.8247 1.977 5.8247-1.73.8385-3.088.7501-3.336 2.9124z" fill="#cdad56" fill-rule="evenodd" stroke="#000" stroke-linejoin="round" stroke-width="1.09887"/><path d="m198.621 262.502c-2.71-2.459-3.032-.311-4.365-.861-.653-.274-1.165-.886-1.733-1.442-.494-.507-1.081-.717-1.734-.992-.246.728-.493 1.456-.739 2.185-.247.728.686 1.934.665 3.027-.185 1.625-.847 2.969-2.885 3.526.581-1.152.911-1.208.734-2.613-.088-.702-2.053-1.948-1.811-2.613.361-1.068.975-2.304.521-3.371-.838.571-1.929.272-2.767.62-.702.314-.75 1.621-1.728 2.165-1.002.469-3.213.237-5.058-.811 1.128-.855 2.06-.278 3.188-1.134.564-.428.538-2.26 1.102-2.688s1.915-.884 2.479-1.312c-.507-.578-.48-1.493-.987-2.07-.508-.578-2.757-.453-3.265-1.031-1.014-1.155-.821-2.676-1.836-3.831 2.626.942 2.245 2.222 2.904 2.125 1.244-.596 2.486-.715 3.138-.441.653.275 1.895 1.898 2.548 2.173.246-.728.605-1.653.852-2.381.247-.729-1.108-1.991-.861-2.719.493-1.456 1.717-2.744 2.21-4.201.177 1.405.41 2.586.587 3.991.088.702 1.469 1.067 1.558 1.77.088.702-.722 2.332-.633 3.034.754-.15 1.845-.048 2.598-.199.754-.15 1.255-1.902 2.009-2.052 1.508-.301 2.594-.209 4.13.08-1.128 1.052-2.003.981-2.71 1.949-.564.428.22 1.839-1.411 2.829-.613.355-2.224-.072-2.788.356.507.578 1.015 1.155 1.522 1.733s2.785.846 3.292 1.424c1.014 1.156 1.552 2.536 1.274 3.775z" fill="#ffc900" fill-rule="evenodd"/><path d="m128.952 263.689c2.71-2.46 3.032-.312 4.365-.861.652-.275 1.165-.887 1.733-1.442.494-.508 1.08-.718 1.733-.993.247.729.493 1.457.74 2.185s-.687 1.934-.665 3.027c.184 1.625.846 2.969 2.884 3.527-.581-1.152-.91-1.209-.733-2.613.088-.703 2.052-1.948 1.81-2.614-.36-1.067-.974-2.303-.52-3.371.838.572 1.929.273 2.767.62.702.314.75 1.621 1.728 2.165 1.002.47 3.213.237 5.058-.81-1.129-.856-2.061-.279-3.188-1.135-.564-.428-.538-2.26-1.102-2.688-.565-.428-1.916-.884-2.48-1.312.508-.577.481-1.492.988-2.07.508-.577 2.757-.453 3.264-1.031 1.015-1.155.822-2.676 1.836-3.831-2.625.943-2.244 2.222-2.904 2.125-1.243-.596-2.485-.715-3.138-.44-.652.274-1.894 1.898-2.547 2.172-.247-.728-.606-1.653-.852-2.381-.247-.728 1.108-1.99.861-2.718-.493-1.457-1.717-2.745-2.21-4.201-.177 1.405-.41 2.585-.587 3.99-.089.702-1.47 1.068-1.559 1.77-.088.703.722 2.332.634 3.035-.754-.151-1.845-.049-2.599-.199-.753-.151-1.254-1.902-2.009-2.053-1.508-.301-2.593-.209-4.13.08 1.128 1.053 2.004.981 2.711 1.949.564.428-.221 1.839 1.411 2.829.612.355 2.224-.071 2.788.357-.508.577-1.015 1.155-1.522 1.733-.507.577-2.785.846-3.292 1.424-1.015 1.155-1.552 2.535-1.274 3.775z" fill="#ffc900" fill-rule="evenodd"/><path d="m196.186 270.275c-2.453 1.917-18.311 5.925-18.474 19.695-.163 13.769 2.78 16.907-.163 17.256-5.723 0-6.54-15.338-6.376-22.136.162-6.798.326-5.752.326-5.752s3.923 1.045 3.597 4.358c-.327 3.311 3.923-8.192 2.453-11.33 2.615 2.615 6.048 1.569 6.048 1.394 0-.174-1.961-2.265-2.779-3.834-.817-1.569 2.943.871 2.943.871s.163-2.614-3.107-2.44c-4.25 0 .655-1.394.655-1.394s2.452 2.265 4.087-.175c-1.799-1.916-4.414-2.963-4.414-2.963s-2.289-4.357-5.395-5.228c-3.597-.872-3.107 1.568-7.194 1.22-.817 1.568-.817 1.743.818 2.265-2.779 1.918-1.308 5.752-1.308 5.752s4.414-1.917 4.25 1.22c-.163 3.138-2.616 2.615-4.25.698-1.471-.872-1.962.871-1.962.871l2.289 2.44s-4.415-.174-5.559 2.789c2.453-.174 3.761.523 3.761.523s-5.069 2.266-5.56 3.486c-.489 1.22-.653-1.395-.817-1.395-.163 0-4.904-1.742-4.904-1.742l-1.637 7.537s3.272 3.269 5.07 2.223c1.799-1.046 5.068-4.183 7.03-3.312-5.722 4.358-11.444 10.632-14.55 11.504-.818-.697-3.597-3.486-4.741-2.092-1.145 1.395-.328 3.138 1.144 2.963 1.471-.174-4.741 1.395-3.433 4.009 1.308 2.615 1.144 2.44 2.289 1.744 1.144-.698-.981-.872 3.269-2.092 4.251-1.22 4.087-2.441 4.087-2.441s-.817 1.918-3.105 2.441c-2.289.523-4.088.523-3.597 1.22.49.697 1.47 1.917 1.144 2.615-.327.696 4.741-3.661 6.049-.175 3.434-.174 5.722-4.357 4.087-6.797.164 2.614 1.798 3.485.817 4.705s7.684-4.009 3.433-7.146c1.146 2.615 1.308 4.706 1.308 4.706s1.962-.174 2.453-.871c.49-.698-.981 1.917-.327 2.44.653.523 3.76 3.486 2.452 5.578-.817-1.22-.981-3.138-1.961-2.964-.982.175-5.069 3.138-7.521 3.312s2.943 9.064 2.943 9.064-3.761-.523-4.25-.175c-.491.349-2.943-3.137-3.434-1.045-.818 2.614.817 1.568.817 1.568s-2.125-1.046-3.269.175c-1.144 1.22-2.289 2.44-1.472 2.962.818.523 4.415.523 4.905.349s-4.087.349-4.414.872c-.328.522-.981 2.44 0 3.137s3.433-.349 3.596-.871c.164-.524.328 1.917.328 1.917s4.25.348 4.25-4.009.328 3.137.328 3.137 4.25.697 4.413-3.66.49 2.963.49 2.963 2.78-.872 2.78-1.568c0-.698-.164 8.714-2.125 11.329-3.107-2.092-5.069 1.394-5.069 1.394s.164 5.055-.163 6.275c-.326 1.22 2.125-.698 2.289-1.22.163-.523 3.106-1.918 3.27-2.266.163-.349.98-2.092.98-2.092s-.654 2.44-1.798 2.789-2.289 1.569-1.799 2.615c.491 1.045 2.29 1.743 2.943 2.788.654 1.046 2.943-6.1 2.943-6.1l.163 1.568s2.943-.696 3.27-2.091c.327-1.394-3.106-2.614-.327-4.881 2.779-2.265 0 2.092 0 2.092s.981 3.312 1.635 3.312 2.288-6.275.654-7.844c-1.635-1.568 2.452 1.918 2.452 1.918s2.29-6.449-.163-7.321c-2.452-.871-3.597-1.22-3.597-1.22s1.308-1.743.654-1.917 3.433 3.835 4.087 2.789 1.635-4.184-3.105-5.926c-4.742-1.743-.164-6.624-.164-6.624s2.943 3.486 5.068 1.568c2.125-1.916-.164-1.916-.164-1.916s6.049-3.834 6.212-5.752c-1.144-.175-3.106.174-3.106.174s3.434-2.265 2.617-5.926c-1.309 1.917-3.107 1.918-3.107 1.918s2.943-2.964 2.452-5.752c-1.798 1.394-1.635 2.439-2.779 2.091s-3.106-11.329 1.471-12.027c4.578-.696 2.125 5.404 2.289 5.404.163 0 6.867-2.789 0-7.321 1.635-.523 5.068 2.615 5.068 2.615s-1.471-7.67-8.828-2.963c1.799-1.917 2.943-3.138 4.414-2.789 1.472.349 6.704-.174 6.704-1.743-1.308-1.046-4.088.523-5.56 0-1.471-.523 10.463-1.395 9.483-7.32z" style="fill:#ffc900;fill-rule:evenodd;stroke:#006b00;stroke-width:.689179;stroke-linecap:round;stroke-linejoin:round"/><path d="m481.299 118.544s12.247-6.43 18.37 1.531" fill="none" stroke="#006b00" stroke-linecap="round" stroke-width="1.25" transform="matrix(.533968 0 0 .569283 -112.6377 207.3211)"/><path d="m504.568 132.322c-.306 0-4.286 3.98-5.205 3.98" fill="none" stroke="#006b00" stroke-linecap="round" stroke-width="1.25" transform="matrix(.533968 0 0 .569283 -112.6377 207.3211)"/><path d="m512.835 145.181s11.328.918 18.676-10.41" fill="none" stroke="#006b00" stroke-linecap="round" stroke-width="1.25" transform="matrix(.533968 0 0 .569283 -112.6377 207.3211)"/><path d="m525.081 141.813s.919 6.123 2.756 6.123-3.062 1.531-4.899.306c2.143 2.756 3.368 7.655 0 9.492" fill="none" stroke="#006b00" stroke-linecap="round" stroke-width="1.25" transform="matrix(.533968 0 0 .569283 -112.6377 207.3211)"/><path d="m519.264 218.968s-3.98 4.286-8.879 4.592" fill="#e80000" fill-rule="evenodd" stroke="#006b00" stroke-linecap="round" stroke-width="1.25" transform="matrix(.533968 0 0 .569283 -112.6377 207.3211)"/><path d="m523.857 199.373s-2.45-12.247-.919-15.309c.919-3.979 4.899-5.511 7.961-10.716" fill="none" stroke="#006b00" stroke-linecap="round" stroke-width="1.25" transform="matrix(.533968 0 0 .569283 -112.6377 207.3211)"/><path d="m522.632 190.494s-3.062 7.348-16.533 4.899" fill="none" stroke="#006b00" stroke-linecap="round" stroke-width="1.25" transform="matrix(.533968 0 0 .569283 -112.6377 207.3211)"/><path d="m526.306 172.124s.919 9.797-11.328 6.123" fill="none" stroke="#006b00" stroke-linecap="round" stroke-width="1.25" transform="matrix(.533968 0 0 .569283 -112.6377 207.3211)"/><path d="m511.304 128.035s-4.899 4.287-3.062 10.104" fill="none" stroke="#006b00" stroke-linecap="round" stroke-width="1.25" transform="matrix(.533968 0 0 .569283 -112.6377 207.3211)"/><path d="m529.674 117.319s6.43-2.449 7.654-3.674c1.225-1.224 3.368-3.674 3.98-5.511.613-1.837-4.285-4.593-1.837-8.5726 1.531-1.837 3.674-2.1431 7.348 0 3.675 2.1436-3.367-6.7357-7.041-7.0419s-6.124 2.4493-7.042 1.837c-.919-.6123.306 2.4494-1.225 2.4494s3.062 2.4494 2.756 3.9801c-.307 1.531 4.898 6.736 4.592 7.961-.306 1.224-7.654 8.266-9.185 8.572z" fill="#006b00" fill-rule="evenodd" stroke-linecap="round" stroke-width="1.25" transform="matrix(.533968 0 0 .569283 -112.6377 207.3211)"/><path d="m534.267 97.1121c2.794-.6363 3.243.0704 2.755 2.4493-1.309-.6602-1.79-1.2169-2.755-2.4493z" style="fill:#ffc900;fill-rule:evenodd;stroke:#ffc900;stroke-width:1.25;stroke-linecap:round;stroke-linejoin:round" transform="matrix(.533968 0 0 .569283 -112.6377 207.3211)"/><path d="m514.708 233.517s-1.033 6.409 1.489 6.946c-.124-2.48.538-4.176 1.158-4.837-.538-.249-2.522-2.067-2.647-2.109z" fill="#e80000" fill-rule="evenodd" stroke="#006b00" stroke-linejoin="round" stroke-width="1.25" transform="matrix(.533968 0 0 .569283 -112.6377 207.3211)"/><path d="m509.03 225.626c-2.316-.331-6.23 1.591-5.105 3.911 1.881-1.621 3.626.134 4.941-1.519.404-.453.29-1.812.164-2.392z" fill="#e80000" fill-rule="evenodd" stroke="#006b00" stroke-linejoin="round" stroke-width="1.25" transform="matrix(.533968 0 0 .569283 -112.6377 207.3211)"/><path d="m509.006 221.05s-3.651-.581-4.157 1.948c2.52-.32 3.274-.59 4.109-.06.242-.541.008-1.762.048-1.888z" fill="#e80000" fill-rule="evenodd" stroke="#006b00" stroke-linejoin="round" stroke-width="1.25" transform="matrix(.533968 0 0 .569283 -112.6377 207.3211)"/><path d="m493.54 184.936s2.191.828 2.811 3.06c1.736-1.075 2.564-5.83-2.811-3.06z" fill="#e80000" fill-rule="evenodd" stroke="#006b00" stroke-linejoin="round" transform="matrix(.533968 0 0 .569283 -112.6377 207.3211)"/><path d="m488.123 190.394c.083-.041 4.59-2.77 5.045-.165-.952.95-1.365 1.57-2.109 1.778-.579-.001-1.737-1.778-2.936-1.613z" fill="#e80000" fill-rule="evenodd" stroke="#006b00" stroke-linejoin="round" transform="matrix(.533968 0 0 .569283 -112.6377 207.3211)"/><path d="m487.669 199.242c.082-.042 2.894-2.522 3.969-.868 1.075 1.653-.868 1.571-.868 1.571s-.993-.455-3.101-.703z" fill="#e80000" fill-rule="evenodd" stroke="#006b00" stroke-linejoin="round" transform="matrix(.533968 0 0 .569283 -112.6377 207.3211)"/><path d="m483.699 149.958c-.041 0-3.597-1.364-5.085 1.116 2.357.29 3.184 1.117 4.258 1.944-.289-1.034-.785-2.605.827-3.06z" fill="#e80000" fill-rule="evenodd" stroke="#006b00" stroke-linejoin="round" transform="matrix(.533968 0 0 .569283 -112.6377 207.3211)"/><path d="m476.795 168.522s.165-4.176 2.15-5.871c1.116.62 1.446 1.612 2.191 2.853-1.488.33-3.473.413-4.341 3.018z" fill="#e80000" fill-rule="evenodd" stroke="#006b00" stroke-linejoin="round" transform="matrix(.533968 0 0 .569283 -112.6377 207.3211)"/><path d="m486.304 165.545s-3.928 1.82-2.646 3.804c1.282-1.364 2.688-.951 2.688-.992s0-2.77-.042-2.812z" fill="#e80000" fill-rule="evenodd" stroke="#006b00" stroke-linejoin="round" transform="matrix(.533968 0 0 .569283 -112.6377 207.3211)"/><path d="m480.64 125.605c-1.406 1.571 1.736 5.003 5.044 4.507.827-3.72-4.217-5.664-5.044-4.507z" fill="#ffc900" fill-rule="evenodd" stroke="#006b00" stroke-linejoin="round" transform="matrix(.533968 0 0 .569283 -112.6377 207.3211)"/><path d="m480.599 118.412c-.689 1.75 2.053 4.203 3.638 3.514.648-1.792-2.922-4.906-3.638-3.514z" fill="none" stroke-linejoin="round" transform="matrix(.533968 0 0 .569283 -112.6377 207.3211)"/><path d="m484.278 122.753s.62 2.936 3.473 2.15c-.455-2.274-2.439-3.969-2.439-3.969-.124.662.413 1.695-1.034 1.819z" fill="#e80000" fill-rule="evenodd" stroke="#006b00" stroke-linejoin="round" transform="matrix(.533968 0 0 .569283 -112.6377 207.3211)"/><path d="m486.18 131.27s1.571 1.695 4.672-1.778c-1.405.413-3.886-.827-3.886-.827s0 2.398-.786 2.605z" fill="#e80000" fill-rule="evenodd" stroke="#006b00" stroke-linejoin="round" transform="matrix(.533968 0 0 .569283 -112.6377 207.3211)"/><path d="m480.463 118.863c-1.406 1.571.583 3.762 3.891 3.266.827-3.72-3.064-4.423-3.891-3.266z" fill="#ffc900" fill-rule="evenodd" stroke="#006b00" stroke-linejoin="round" transform="matrix(.533968 0 0 .569283 -112.6377 207.3211)"/><path d="m144.625 266.621s7.037-2.011 10.771 1.005 3.734.287 3.734.287 5.457 2.011 7.037 1.58-1.148.144 1.006-1.149c2.154-1.292-4.309.288-4.883-2.441-1.006-1.724.143-3.878-2.154-3.16-1.58-2.011 1.005-3.446.43-5.601-1.579 1.149-2.441-.431-3.734 2.442-3.015-.575-.431-4.74-3.734-5.171 0 3.016-2.442 3.16-2.585 4.883-1.436 1.006-7.755 4.74-5.888 7.325z" fill="url(#e)" fill-rule="evenodd"/><path d="m63.6244 495.585c4.566-1.102 29.3059 5.462 38.8436 15.689-2.024-18.213-7.0701-32.166-7.0701-32.166s-14.7433-4.205-16.7669-2.181c-2.9683 3.126-11.8835 12.492-15.0066 18.658z" fill="#c01500" fill-rule="evenodd" stroke="#000"/><path d="m56.0824 411.462c-1.7345.289-3.469 1.446-5.2035 4.336-2.0236 4.914-3.469 17.345-6.3599 20.236-2.8908 2.891-5.4926 3.18-5.4926 5.782 0 2.601.2891 8.672 8.0944 10.985 7.8053.289 20.2359-12.431 20.2359-12.431s6.3599-6.938 8.9616-14.454c-15.0324 5.204-25.7285-8.673-20.2359-14.454z" fill="#c01500" fill-rule="evenodd" stroke="#000"/><path d="m273.493 492.685c-4.531-1.096-29.556 5.43-39.02 15.597 2.009-18.106 7.016-31.978 7.016-31.978 1.747-.476 14.47-4.18 16.479-2.168 2.945 3.108 12.426 12.419 15.525 18.549z" fill="#c01500" fill-rule="evenodd" stroke="#000" stroke-width=".993227"/><path d="m280.501 409.054c1.722.287 2.33 2.549 3.735 5.422 2.007 4.885 4.077 12.003 6.946 14.876 2.868 2.875 5.45 7.132 5.45 9.719 0 2.585-.605 6.081-8.35 8.379-7.745.288-18.968-9.657-18.968-9.657s-6.311-6.898-8.893-14.37c14.917 5.174 24.578-8.146 20.08-14.369z" fill="#c01500" fill-rule="evenodd" stroke="#000" stroke-width=".993227"/><path d="m47.4099 479.686s15.6105 10.696 15.8996 15.61c41.9175-62.153 148.8795-81.522 209.8755-4.336 8.094-10.696 16.478-14.165 16.478-14.165-64.177-83.835-191.9525-73.428-242.2531 2.891z" fill="#fb0" fill-rule="evenodd" stroke="#000"/><g fill="#1e5aa6" fill-rule="evenodd" stroke="#000" transform="translate(-.000007 .000046)"><path d="m206.44 241.876 6.11-.145-10.911 13.82 13.094 15.276-25.751 32.443 24.296 29.242c-2.667 6.547-5.771 12.512-9.893 17.894l-13.966-15.421 25.314-31.57-20.804-23.568z"/><path d="m119.151 244.64-6.546.146 12.22 13.238-12.949 16.149 26.915 29.242-22.259 29.824c2.667 6.547 6.498 13.821 10.62 19.203l13.239-16.73-27.205-30.261 19.931-25.313z"/><path d="m149.411 323.201-9.602 12.803 34.334 39.716c6.062-3.055 10.815-6.546 16.003-10.765l-17.894-20.659 7.274-21.386 10.475 12.075-32.733 41.754c-5.48-2.328-11.542-5.965-17.022-10.475l17.312-21.968z"/><path d="m138.79 303.27 6.256 7.856-4.073-10.62z"/><path d="m183.597 310.217c.137-.146 5.049-6.693 5.049-6.693l-1.911-2.618z" stroke-width=".968487"/></g><text font-family="Timmons" font-size="14" font-weight="bold" transform="matrix(.648698 -.761046 .761046 .648698 0 0)" x="-328.34363" y="362.39716"><tspan x="-328.34363" y="362.39716">L</tspan></text><text font-family="Timmons" font-size="14" font-weight="bold" transform="matrix(.702254 -.711927 .711927 .702254 0 0)" x="-292.33514" y="384.26642"><tspan x="-292.33514" y="384.26642">E</tspan></text><text font-family="Timmons" font-size="14" font-weight="bold" transform="matrix(.762801 -.544641 .567688 .754221 0 0)" x="-239.78038" y="451.6806"><tspan x="-239.78038" y="451.6806">O</tspan></text><text font-family="Timmons" font-size="14" font-weight="bold" transform="matrix(.828445 -.56007 .56007 .828445 0 0)" x="-188.5262" y="429.95776"><tspan x="-188.5262" y="429.95776">T</tspan></text><text font-family="Timmons" font-size="14" font-weight="bold" transform="matrix(.90222 -.431277 .431277 .90222 0 0)" x="-115.42612" y="451.47876"><tspan x="-115.42612" y="451.47876">E</tspan></text><text font-family="Timmons" font-size="14" font-weight="bold" transform="matrix(.913636 -.406535 .406535 .913636 0 0)" x="-94.110794" y="453.04584"><tspan x="-94.110794" y="453.04584">R</tspan></text><text font-family="Timmons" font-size="14" font-weight="bold" transform="matrix(.927768 -.373161 .373161 .927768 0 0)" x="-68.37056" y="454.98212"><tspan x="-68.37056" y="454.98212">R</tspan></text><text font-family="Timmons" font-size="14" font-weight="bold" transform="matrix(.996548 -.08302785 .08302785 .996548 0 0)" x="112.01579" y="445.66595"><tspan x="112.01579" y="445.66595">R</tspan></text><text font-family="Timmons" font-size="14" font-weight="bold" transform="matrix(.999889 .01494831 -.01494831 .999889 0 0)" x="180.22531" y="430.7926"><tspan x="180.22531" y="430.7926">R</tspan></text><text font-family="Timmons" font-size="14" font-weight="bold" transform="matrix(.869108 .494625 -.494625 .869108 0 0)" x="414.75919" y="275.21735"><tspan x="414.75919" y="275.21735">R</tspan></text><text font-family="Timmons" font-size="14" font-weight="bold" transform="matrix(.768268 .640129 -.640129 .768268 0 0)" x="483.87762" y="193.05025"><tspan x="483.87762" y="193.05025">E</tspan></text><text font-family="Timmons" font-size="14" font-weight="bold" transform="matrix(.963556 .181123 -.155314 .951842 0 0)" x="309.11557" y="414.02829"><tspan x="309.11557" y="414.02829">O</tspan></text><text font-family="Timmons" font-size="14" font-weight="bold" transform="matrix(.901875 -.131596 .136478 .975003 0 0)" x="105.05786" y="459.27182"><tspan x="105.05786" y="459.27182">O</tspan></text><text font-family="Timmons" font-size="14" font-weight="bold" transform="matrix(.937938 -.346807 .346807 .937938 0 0)" x="-45.707756" y="455.83463"><tspan x="-45.707756" y="455.83463">A</tspan></text><text font-family="Timmons" font-size="14" font-weight="bold" transform="matrix(.704684 .709523 -.709523 .704684 0 0)" x="518.34955" y="144.72449"><tspan x="518.34955" y="144.72449">A</tspan></text><text font-family="Timmons" font-size="14" font-weight="bold" transform="matrix(.980423 .196908 -.196908 .980423 0 0)" x="271.18784" y="388.29758"><tspan x="271.18784" y="388.29758">A</tspan></text><text font-family="Timmons" font-size="14" font-weight="bold" transform="matrix(.982793 -.184719 .184719 .982793 0 0)" x="40.321587" y="455.1676"><tspan x="40.321587" y="455.1676">M</tspan></text><text font-family="Timmons" font-size="14" font-weight="bold" transform="matrix(.994632 -.103487 .103487 .994632 0 0)" x="94.428757" y="448.07883"><tspan x="94.428757" y="448.07883">P</tspan></text><text font-family="Timmons" font-size="14" font-weight="bold" transform="matrix(.999675 -.02552389 .02552389 .999675 0 0)" x="155.08846" y="437.60687"><tspan x="155.08846" y="437.60687">P</tspan></text><text font-family="Timmons" font-size="14" font-weight="bold" transform="matrix(.870364 .492411 -.492411 .870364 0 0)" x="405.13382" y="276.66531"><tspan x="405.13382" y="276.66531">P</tspan></text><text font-family="Timmons" font-size="14" font-weight="bold" transform="matrix(.993403 .114679 -.114679 .993403 0 0)" x="232.09538" y="409.79309"><tspan x="232.09538" y="409.79309">I</tspan></text><text font-family="Timmons" font-size="14" font-weight="bold" transform="matrix(.68726 .726411 -.726411 .68726 0 0)" x="530.39215" y="132.08934"><tspan x="530.39215" y="132.08934">T</tspan></text><text font-family="Timmons" font-size="14" font-weight="bold" transform="matrix(.800563 .599248 -.599248 .800563 0 0)" x="464.15771" y="218.51869"><tspan x="464.15771" y="218.51869">T</tspan></text><text font-family="Timmons" font-size="14" font-weight="bold" transform="matrix(.959255 .282549 -.282549 .959255 0 0)" x="313.72498" y="361.96112"><tspan x="313.72498" y="361.96112">M</tspan></text><text font-family="Timmons" font-size="14" font-weight="bold" transform="matrix(.673526 .739163 -.739163 .673526 0 0)" x="513.7041" y="123.24773"><tspan x="513.7041" y="123.24773">G</tspan></text><path d="m255.944 200.94s6.032-5.171 10.341-5.315" fill="none" stroke="#fff700" stroke-linecap="round"/><path d="m256.806 200.221c.143-.143 36.05-5.17 37.199-6.319" fill="none" stroke="#fff700" stroke-linecap="round"/><path d="m256.949 200.509c.144-.144 40.216-3.447 40.216-3.447" fill="none" stroke="#fff700" stroke-linecap="round"/><path d="m256.806 200.652s42.657-2.011 45.242.144" fill="none" stroke="#fff700" stroke-linecap="round"/><path d="m256.662 200.509s41.796.287 42.514 1.292" fill="none" stroke="#fff700" stroke-linecap="round"/><path d="m256.806 200.509 40.215 3.303" fill="none" stroke="#fff700" stroke-linecap="round"/><path d="m256.375 200.796c.143 0 40.934 3.591 44.955 8.761" fill="none" stroke="#fff700" stroke-linecap="round"/><path d="m303.484 216.882c-.143-.143-13.931-16.517-47.253-16.23" fill="none" stroke="#fff700" stroke-linecap="round"/><path d="m256.375 200.94s23.124 1.579 30.449 9.623" fill="none" stroke="#fff700" stroke-linecap="round"/><path d="m256.806 200.652s14.937-2.872 30.592 15.943" fill="none" stroke="#fff700" stroke-linecap="round"/><path d="m247.4 217.743s20.718.813 20.718 2.844-15.437 5.89-15.64 14.422c-.203 8.531 11.781 9.14 12.593 19.905.813 10.766-9.343 12.39-11.375 15.234-2.031 1.422-6.906 16.656-6.296 25.593.609 8.938 3.249 39.203 7.921 45.296 3.657 2.844 9.141 11.984 15.031 9.14 5.891-2.843 1.828-13.202 1.219-16.046s2.437-7.516 2.437-11.781c0-4.266-2.234-7.719-2.031-8.734.203-1.016 16.453 3.859 15.437 19.906-1.015 16.046-7.515 11.171-7.515 11.171s2.031 19.703-3.047 22.343c-9.14 4.875-15.843-1.015-15.843-1.015l.8587 4.0069-6.9527-3.6009s-8.937-12.797-10.968-18.484-4.469-31.077-3.656-36.561c.812-5.485 1.421-37.578 1.015-39.203s-2.031-28.436-1.015-32.499c1.015-4.062 7.312-21.937 7.109-21.937z" fill="url(#h)" fill-rule="evenodd" stroke="#000"/><path d="m225.057 212.462s14.421-14.015 22.749-12.39c4.266 0 .203 3.047.203 3.047s7.312.609 8.328 3.859c.203 1.422-3.453 1.828-3.453 1.828s3.047.609 3.25 3.25-30.874.609-31.077.406z" fill="#ff7000" fill-rule="evenodd" stroke="#000"/><path d="m225.869 211.853s15.437-2.031 21.937-8.531" fill="none" stroke="#000"/><path d="m241.509 207.587s11.375-.406 11.375 1.219" fill="none" stroke="#000"/><path d="m281.93 373.739s9.75-2.234 12.39-5.687c1.626-1.219 10.157 12.796-12.39 5.687z" fill="#fff" fill-rule="evenodd" stroke="#000" stroke-linejoin="round" stroke-width="1.25"/><path d="m279.29 293.101s1.219 7.515-2.235 12.593c-1.828 2.031-7.312 5.484-7.312 7.922 0 2.437 2.031 5.687 1.625 8.531s-3.453 5.688-3.25 8.125c0 2.437 3.453 15.437 3.047 15.64" fill="none" stroke="#fff" stroke-linecap="round" stroke-width="1.25"/><path d="m261.415 268.726s-7.718 2.641-9.343 10.36" fill="none" stroke="#fff" stroke-linecap="round" stroke-width="1.25"/><path d="m258.165 207.587s2.641 7.313 11.172.407c-5.484-7.515-11.172-.204-11.172-.407z" fill="#c75b00" fill-rule="evenodd" stroke="#000"/><path d="m264.86809 206.47018c0 .39265-.40924.71095-.91405.71095s-.91405-.3183-.91405-.71095c0-.39264.40924-.71094.91405-.71094s.91405.3183.91405.71094z" fill-rule="evenodd" transform="translate(-.406246 .8125)"/><path d="m188.4114 190.6181s16.1767 17.5089 26.644 17.3186c1.9032 5.1385-4.752 9.9188-7.4164 12.2025-5.3288-1.7129-10.1446.3122-22.515-14.9131.7613-9.7059 3.4777-14.2274 3.2874-14.608z" fill="#fff" fill-rule="evenodd" stroke="#000"/><path d="m210.2975 149.8907c2.0935-6.4706 6.2804-11.6092 9.8964-12.1801-.9515-4.9481 7.6126-26.8342 32.5438-35.2081 1.5226 11.2285-10.6576 22.2668-10.6576 22.2668s36.7306-6.2804 44.1529-15.6058c-.7612 4.1869-8.1835 30.2599-47.3883 30.0696 14.8446 14.0833-4.7578 25.312-13.1317 21.8863 15.4155-11.7995-4.3773-18.8412-15.4155-11.2287z" fill="#fff" fill-rule="evenodd" stroke="#000"/><path d="m222.8583 140.7556c7.4223-4.7578 10.0866-4.7578 16.1767-3.8062-4.3772.571-4.3772.7612-4.3772.7612s-.3806.571 2.2837 3.0451c-3.045-.7613-5.7093-2.474-14.0832-.0001z" fill="#cccccd" fill-rule="evenodd" stroke="#ccc"/><path d="m220.0036 137.7106s14.6542-7.8029 22.8377-13.1317" fill="none" stroke="#000"/><path d="m207.4428 220.1169s20.1733 5.519 22.4571-23.4088c-4.3772-12.5608-10.4673-39.5854-1.1419-47.3883-8.5641-5.8998-17.8895.1904-17.8895.1904-.5709 1.3322-8.1835 12.1801 2.0934 31.2115-24.3602-6.4707-14.4639 16.5574-14.4639 16.5574.9516-3.616 13.893-7.0416 17.1283 11.4188 1.3323 4.5676-8.7544 11.6092-8.1835 11.419z" fill="#00f" fill-rule="evenodd" stroke="#000"/><path d="m230.0902 196.8985s21.3153-11.4189 20.7443-38.2533c-18.0798.3807-24.5505 23.7894-24.5505 23.7894z" fill="#00f" fill-rule="evenodd" stroke="#000"/><path d="m134.5524 195.5662s-15.7961 13.7026-24.7409 9.3254c-6.661 3.9966-14.46393-3.0449-14.46393-3.0449s9.13513 33.6856 41.86923 9.3254c-.5709-7.4223-2.2838-15.0349-2.6644-15.6059z" fill="#fff" fill-rule="evenodd" stroke="#000"/><path d="m109.6211 204.3207c1.3322-7.0416 6.8514-10.4673 11.2286-3.8063 5.8998 1.1419 11.7995-23.0281-9.1351-19.0314 5.8998-31.5923-11.79948-43.3918-11.79948-43.3918s-6.28038 35.0179-3.42566 41.4886-4.18692-11.9898-26.83435-17.1283c-.38063 26.4538 25.31185 38.8242 25.31185 38.8242s7.23194 6.6609 14.65414 3.045z" fill="#00f" fill-rule="evenodd" stroke="#000"/><path d="m111.7146 181.2927s-9.8963 8.3739-7.6126 19.7927" fill="none" stroke="#000"/><path d="m96.67977 180.1508s-2.28377 8.1835 2.66441 19.7927" fill="none" stroke="#000"/><path d="m95.15725 202.6079s4.56756-7.4222 14.46395 2.0935" fill="none" stroke="#000"/><path d="m97.0604 151.223c0-.1903-15.03486-.0001-6.09006 15.2251-6.661 2.0935-21.50555-7.6126-11.22856-20.554-33.68567-.7613-47.38831-16.938-47.38831-31.7824 9.89635 10.2769 33.49536 6.0899 41.86919 12.3704-10.27699-9.5158-8.18352-22.6474-8.18352-22.6474s28.7375 8.5641 33.87598 34.0663c-1.71283 4.9481-2.47409 13.7026-2.85472 13.322z" fill="#fff" fill-rule="evenodd" stroke="#000"/><path d="m73.94166 125.8175c5.54593 5.6425 19.79569 7.3285 27.02764 13.6089" fill="none" stroke="#000"/><path d="m80.50304 142.4685s11.79686-1.5226 15.21622 2.6644c-4.61613 0-6.15487-1.142-12.82267 1.3322 1.88066-.9516 1.36775-2.6644 2.39357-2.6644s-4.27422-1.3322-4.78712-1.3322z" fill="#cccccd" fill-rule="evenodd" stroke="#ccc" stroke-width=".947813"/><path d="m139.3102 50.16602s6.4707-5.70954 13.5124-.57099c-3.1814 9.50653-14.6543 5.89974-14.6543 5.89974s.3807 4.75792-.7612 7.0417c2.2968 1.72623 4.1869 7.42225 4.1869 7.42225s11.7995-2.85469 14.2736 2.28379c4.5187-.62355 7.8029 0 7.8029 0s9.1351-2.28379 12.3704-2.28379c3.2354 0 13.5123 2.66449 14.4639 4.56757s4.3772 14.65424 6.661 14.46388c2.2838-.19035-5.5191 3.04497-7.6125-.19035-2.0935-3.23532-1.5226 4.18694-1.5226 4.18694s6.4707 6.85134 7.232 8.37384c.7612 1.5225-3.9966 13.893-.3806 22.4571-3.1685.2929-3.4257 3.616-3.4257 3.616-.1745 3.7702-4.9482 4.7578-4.9482 4.7578l-1.1419-5.1385-3.2353 1.9032 1.3322-3.9967s4.3772-10.6575 4.7579-14.0832c.3806-3.4257-3.9967-9.5157-7.4223-9.5157-3.4257 0-5.8998 10.8479-5.8998 10.8479s-1.7128 8.1835-1.1418 8.9448c.5709.7613-2.2838-2.6644-2.2838-2.6644s-1.5225 4.9481-2.6644 6.4706c-1.1419 1.5226-3.616 2.0935-3.616 2.0935s-1.7128-4.9482-1.1419-6.8513c.571-1.9032 9.3254-9.3255 8.5642-14.6542-.7613-5.3288 0-3.9966-.1904-4.1869-.1903-.1904-4.5675-3.99663-4.7578-6.09006s-5.7095 2.66441-12.9414 1.14189c-2.2134 3.86777-2.4741 13.51227-2.4741 13.51227s-.7612 11.6092.7613 12.9414-3.8063 4.1869-3.8063 4.1869l-3.8063 5.1385s-1.3322-3.2354-1.3322-3.045c0 .1903-2.6644 1.9031-2.6644 1.9031l1.5225-3.8063c-.0929-2.8811 3.7-10.7505 3.7-17.4115s.4869-13.8.4869-13.8-7.0416-.38055-6.8513 6.8513c.1903 7.2319-1.7128 7.6126-1.3322 9.7061.3806 2.0934 2.2838 7.9932 1.7128 9.706-.5709 1.7128-2.8547 2.2837-2.8547 2.2837l-.5709.9516s-7.0417 3.2354-6.8514 4.5676c.1904 1.3322-.1903-3.8063-.1903-3.8063l-.3806-5.5191s4.1869-2.6644 4.1869-9.3254c0-6.6611-.9649-7.6081-.7746-9.1306.1903-1.5226 1.1552-7.04624.9649-7.61715-.1903-.5709-3.9966 1.52253-5.1385 1.52253s2.0935-3.99651 2.4741-6.85128c.3807-2.85476-3.8063 2.66434-7.2319-.57098 1.5929-3.5141 3.9966-4.56749 4.3772-7.2319.3806-2.66442-2.6644 2.28378-5.3288.38063.2166-2.55371 2.8547-4.75792 2.8547-4.75792s-2.1686-.2655-3.045 0c-1.7128-.57091 1.9031-3.23532 2.0934-7.04163.1904-3.8063-2.0934-5.32882-2.0934-5.5191s-3.8063-3.4256-4.3772-4.75784c-.571-1.33225-.571-2.85477-.571-2.85477s-6.2804 4.56756-13.7026-5.13848c6.797-5.80268 14.0832-1.52252 14.0832-1.52252s1.9032-5.32882 10.6577-4.94819c8.7544.38063 10.4672 5.32882 10.0866 4.75792z" fill="#923f00" fill-rule="evenodd" stroke="#000"/><path d="m187.1852 148.6109c.1585 0 16.1668.4754 16.3253 9.0343s-4.9135 6.34-5.072 6.34-11.7288-1.4266-11.7288-1.4266z" fill="#00f" fill-rule="evenodd" stroke="#000"/><path d="m171.6525 146.2335s19.9707-.1585 18.8612 8.5588-6.1814 6.9739-6.1814 6.9739l-9.6683-.7925z" fill="#fffeff" fill-rule="evenodd" stroke="#000"/><path d="m160.3992 145.2825 11.5703.951s6.9739.9508 6.6569 7.6078c-.317 6.6569-7.1324 6.8154-7.1324 6.8154l-11.2533-.634z" fill="#00f" fill-rule="evenodd" stroke="#000"/><path d="m133.3 148.6109c-.1585 0-16.1668.4754-16.3253 9.0343s4.9135 6.34 5.072 6.34 11.7288-1.4266 11.7288-1.4266z" fill="#fff" fill-rule="evenodd" stroke="#000"/><path d="m148.8327 146.2335s-19.9707-.1585-18.8612 8.5588 6.1814 6.9739 6.1814 6.9739l9.6683-.7925z" fill="#00f" fill-rule="evenodd" stroke="#000"/><path d="m160.086 145.2825-11.5703.951s-6.9739.9508-6.6569 7.6078c.317 6.6569 7.1324 6.8154 7.1324 6.8154l11.2533-.634z" fill="#fff" fill-rule="evenodd" stroke="#000"/><path d="m191.072 241.5105s8.3201-12.2613 11.8234-10.9476c3.0653 1.0218.7298 10.5098-.7299 11.3855z" fill="#5e0043" fill-rule="evenodd" stroke="#000"/><path d="m134.0425 243.7c-2.6274-3.6492-6.4225-13.721-9.9258-10.9476-3.0653 1.0218-.7298 10.5098.7299 11.3855z" fill="#5e0043" fill-rule="evenodd" stroke="#000"/><path d="m139.5529 219.4545s16.212 9.9868 21.5295 10.2461c5.3176.2593 22.178-12.9697 22.178-12.9697" fill="none" stroke="#000"/><path d="m141.1092 180.2864 3.1127-3.8909 15.5636 7.9115 15.8229-7.0036 3.1127 3.2424-17.6387 12.4508z" fill="#5e0043" fill-rule="evenodd" stroke="#000"/><path d="m128.7485 180.0768c1.2641 1.5967 11.3232 13.8277 13.1389 23.9439 1.8157 10.1163-1.0376-13.8775-1.0376-13.8775s12.4508 6.0959 12.8399 9.9867 5.9526-.2628 6.2187-.9281l-36.048-23.4144z" fill="#474747" fill-rule="evenodd" stroke="#474747" stroke-linejoin="round" stroke-width="1.25"/><path d="m190.264 179.3786s-13.0993 17.2495-11.5429 36.0554c-2.7017-9.0043-.5188-23.8641-.5188-23.8641l-2.8533 1.8158s-2.983 12.7102-6.7442 14.6557c-.6342-1.5142-.5188-2.0752-.5188-2.0752s-4.0206 5.1878-4.7988 5.7066c-.7781.5188.2594 17.509.2594 17.509s1.3501 12.3144 2.9064 12.1847c-1.7702.8682-3.9439 2.2149-3.9439 2.2149l-1.6137-32.8822 3.6888-3.6954s4.9284-5.966 5.3175-11.8023c-2.1391 1.8147-4.5393 2.3345-4.5393 2.3345s-.6485 8.3005-2.5939 9.4678c-1.9455 1.1673-1.9985 3.3325-1.9985 3.3325l-.4625-10.8482z" fill="#474747" fill-rule="evenodd" stroke="#474747" stroke-linejoin="round" stroke-width="1.25"/><path d="m160.3042 199.3517 2.5308 51.8717" fill="none" stroke="#000" stroke-linecap="round" stroke-width="1.25"/><path d="m128.399 224.1237s5.966 3.5017 8.1709 14.1368c19.4544-1.4267 25.5501 5.4472 25.5501 5.4472s15.9526-7.652 23.3453-6.2254c2.5939-5.4472 9.9866-12.4508 9.9866-12.4508" fill="none" stroke="#000"/><path d="m120.2588 173.2828 40.0454 26.1986 36.0555-24.2532s7.5224-4.1502 6.8739-7.1332-3.2424-1.8158-4.5394-1.297c-1.2969.5188-37.7415 26.3283-37.7415 26.3283l-38.7791-24.5125s-2.8533-.908-3.3721.9078 1.0682 2.8533 1.4573 3.7612z" fill="#b4b6b9" fill-rule="evenodd" stroke="#000"/><path d="m191.8698 166.475s-10.246-4.3496-10.246-.5799c0 3.7696.29 4.1562 1.9332 6.5727 1.6432 2.4166-1.2565 3.9632-1.2565 3.9632s-.3867-1.0633-.9667-2.7065c-.5799-1.6432-6.0895-2.8031-6.5728-4.7363-.4834-1.9333 1.1599-5.0264-2.1266-5.413-3.2864-.3867-6.4762 1.3533-7.1528 5.123-.6766 3.7696-4.9297 12.5657-4.9297 12.5657l.58-20.0086c7.2173.5156 20.6208 2.0943 30.9312 3.2865-3.0931-.4833 1.16.1933 1.0633 1.2565-.29.87-1.3533.9667-1.2566.6767z" fill="#474747" fill-rule="evenodd" stroke="#474747" stroke-linejoin="round" stroke-width="1.25"/><path d="m155.6223 161.4485c-1.8366 0-11.0192 1.0634-13.3391 2.4166-2.3198 1.3532 3.7698 3.4798 2.9965 5.3163-.7733 1.8366-.8699 5.5096-3.7697 4.7363-2.8998-.7732-12.6625-5.6062-12.9525-7.2494-.2899-1.6432-2.3198-1.7399-2.3198-1.7399s28.0314-3.7697 29.3846-3.4799z" fill="#474747" fill-rule="evenodd" stroke="#474747" stroke-linejoin="round" stroke-width="1.25"/><path d="m160.0448 159.1459-.0699 24.5825" fill="none" stroke="#000"/><path d="m141.112 130.1858s-11.2311 18.2366-11.4535 18.7927" fill="none" stroke="#000"/><path d="m161.7951 129.741s4.8928 6.6719 4.3368 8.5623c2.0016 1.5569 4.2255 7.784 4.2255 7.784" fill="url(#c)" fill-rule="evenodd" stroke="#000"/><path d="m180.699 128.629s-10.564 14.9006-10.2304 16.0127" fill="none" stroke="#000"/><path d="m126.49678 56.747559c0 .793884-1.13392 1.437454-2.53268 1.437454s-2.53268-.64357-2.53268-1.437454 1.13392-1.437454 2.53268-1.437454 2.53268.64357 2.53268 1.437454z" fill-rule="evenodd" transform="matrix(1.016089 .311175 -.301255 1.049549 15.15004 -41.14085)"/><path d="m126.49678 56.747559c0 .793884-1.13392 1.437454-2.53268 1.437454s-2.53268-.64357-2.53268-1.437454 1.13392-1.437454 2.53268-1.437454 2.53268.64357 2.53268 1.437454z" fill-rule="evenodd" transform="matrix(-1.016089 .311175 .301255 1.049549 242.3027 -41.43542)"/><path d="m254.4906 366.1311s-3.9171.7345-3.7947 1.1017-11.3841.7344-11.629.3672c-.2448-.3672-1.7137 1.9586-1.7137 1.9586l1.8362-1.1017s2.8154 2.9379 3.6723 2.693c.8568-.2448-.3673 1.1017-.1224 1.3466.2448.2448 1.1016-.4897 1.1016-.4897l19.0227-.3182z" fill="#ff7000" fill-rule="evenodd" stroke="#000" stroke-linejoin="round"/><path d="m261.5812 372.0467-15.5369.4498s-3.9171 3.5498-4.1619 4.4067 2.5706 1.1017 2.5706 1.1017l.8569 2.9378 1.9585-.7344s13.2112 1.9644 25.3389-.7345c6.1205-2.1421 7.1916-4.7128 2.9072-6.2735-4.2843-1.5607-13.8109-1.0925-13.9333-1.1536z" fill="#ff7000" fill-rule="evenodd" stroke="#000" stroke-linejoin="round" stroke-width="1.25"/><path d="m208.3693 403.9261 27.9712-1.2458-5.2091-4.4165 75.6471-3.0576-2.6046-6.0019-84.7067 3.3973 10.192 4.7563-22.8753.6794.6794 2.3782-6.0019-.2266s6.6814 2.6047 6.9079 3.7372z" fill="url(#f)" fill-rule="evenodd" stroke="#000"/><path d="m239.7262 249.424c-2.2218-1.1109-11.9975-2.4439-22.884 4.6656l.4443 25.1057s15.9966-8.6648 23.7727-6.6652c-.4443-7.7761-.4443-17.7739-1.333-23.1061z" fill="url(#g)" fill-rule="evenodd" stroke="#000"/><path d="m85.07353 325.6526-65.95588 65.478" fill="none" stroke="#000"/><path d="m114.4669 326.1306-53.5294 70.4963" fill="none" stroke="#000"/><path d="m112.0772 307.7298-71.4522 86.5074" fill="none" stroke="#000"/><path d="m38.47426 393.0423 6.93015-8.125" fill="none" stroke="#000"/><path d="m125.6985 351.2225-27.72056 38.2352" fill="none" stroke="#000"/><path d="m96.78308 394.4761.71692 14.5773" fill="none" stroke="#000"/><path d="m138.364 364.6048-29.3934 36.8015" fill="none" stroke="#000"/><path d="m133.1066 398.5386 11.9486-19.5955" fill="none" stroke="#000"/><path d="m137.6471 375.1195-14.3383 16.25" fill="none" stroke="#000"/><path d="m133.3456 359.8254-9.7978 11.9486" fill="none" stroke="#000"/><path d="m120.6802 342.3806s-29.87138 43.7317-29.39344 47.3162" fill="none" stroke="#000"/><path d="m117.5735 336.6452c-.7169.478-25.80879 33.6949-25.80879 33.6949" fill="none" stroke="#000"/><path d="m90.33089 380.8548-4.54045 5.4963" fill="none" stroke="#000"/><path d="m80.05515 394.7151-6.93015 9.0809" fill="none" stroke="#000"/><path d="m81.81091 225.002s-2.02361 6.36 0 9.54c2.02359 3.18 14.74329 28.908 14.74329 28.908s8.6728-10.696 11.8528-10.985 1.734 27.752 1.734 27.752-5.203 4.915-8.383 4.626c-3.1802-.289 7.805 10.985 7.516 20.525s-14.45431 56.949-19.6578 57.817c-5.2035.867 2.3127-8.673 2.0236-11.275-.2891-2.601-1.7345-.867-2.8908-3.758-1.1564-2.891 1.73451-7.227 1.1563-10.118-.5782-2.891-3.1799-2.312-3.469-4.336s1.73451-2.602 1.4454-4.914c-.2891-2.313-3.469-1.735-3.17989-3.759.28909-2.023.57809-1.156.28909-4.914-.28909-3.758-.8673 2.602-4.0472 2.891-3.18.289-5.7817 7.516-5.7817 7.516s-6.3599 8.962-12.7197 4.914c3.7581 8.095.8672 11.564-.5782 11.853s1.1563 6.36-2.3127 6.649 2.6018 13.587-1.4454 14.743c4.3362 2.024.8673 4.626.8673 4.626s-10.02062.8323-7.8053 13.876c-29.4867-10.407-43.94089-28.331-43.6518-46.543.28908-18.212 6.0708-34.69 20.2359-40.761 4.0472-15.033 10.9852-31.221 10.9852-31.221s-1.1563-6.649-.2891-10.986c.8673-4.336 4.9145-8.672 4.9145-8.672s-.5782-10.407-.2891-15.61c.2891-5.204 2.3127-7.517 2.6018-10.407.289-2.891-.8673-17.635 2.0236-20.236 2.8908-2.602 8.3834-2.313 11.2743-4.048 2.8908-1.734 6.6489-4.914 10.407-4.625s6.938 2.891 6.938 2.891 14.16521 0 15.0324 5.493c.86729 5.492-2.8908 7.516-2.8908 7.516s2.02361 7.805-6.64899 15.032z" fill="#8a9396" fill-rule="evenodd" stroke="#2b2b2b"/><path d="m69.665619 206.4534c0 .95295-1.593315 1.72546-3.558769 1.72546s-3.558769-.77251-3.558769-1.72546 1.593315-1.72546 3.558769-1.72546 3.558769.77251 3.558769 1.72546z" fill="#cecfcf" fill-rule="evenodd" stroke="#2b2b2b" transform="matrix(.879422 -.476042 .476042 .879422 -90.30953 56.57895)"/><path d="m66.679688 206.4442c0 .35596-.445967.64453-.996094.64453-.550128 0-.996094-.28857-.996094-.64453 0-.35597.445966-.64453.996094-.64453.550127 0 .996094.28856.996094.64453z" fill-rule="evenodd" transform="matrix(1.078431 0 0 1.484848 -5.073524 -100.086)"/><path d="m87.97112 216s3.51084 15.6762-.6876 26.5038" fill="none" stroke="#2b2b2b" stroke-width=".625"/><path d="m89.05128 209.1372s6.85009 9.0599 5.96621 20.3293" fill="none" stroke="#2b2b2b" stroke-width=".625"/><path d="m89.71419 207.1484c.22097 0 5.74525 4.8615 5.52428 8.176" fill="none" stroke="#2b2b2b" stroke-width=".625"/><path d="m91.04002 205.1597s3.7565 2.6516 4.64039 5.3033" fill="none" stroke="#2b2b2b" stroke-width=".625"/><path d="m89.27225 203.6129s-13.47923 21.8761-11.71146 35.5763" fill="none" stroke="#000"/><path d="m90.15614 202.95s-17.89865 10.6066-21.21321 45.299" fill="none" stroke="#2b2b2b" stroke-width=".625"/><path d="m88.1674 209.3581-7.07108 5.3034" fill="none" stroke="#000"/><path d="m62.3138 250.2378s9.94368-41.3217 27.62136-47.2878" fill="none" stroke="#2b2b2b" stroke-width=".625"/><path d="m96.78526 264.1589s9.50174-11.9324 11.71144-11.4905c2.2097.442 1.5468 27.6214 1.5468 27.6214s-7.0711 5.3033-8.6179 5.0823c-1.54675-.2209 7.955 12.8163 7.734 17.6777-.2209 4.8614-.4419 4.8614-.4419 4.8614s0-2.8727-2.2097-7.5131c-2.2097-4.6403-.8839-9.9437-15.24701-21.6551-3.53553-7.2921 7.07106 4.4194 9.28081 2.6516 2.2097-1.7677-3.97751-17.0147-3.75654-17.2357z" fill="#2b2b2b" fill-rule="evenodd" stroke="#2b2b2b"/><path d="m79.89346 196.9574s-3.99467 1.0894-4.5394 2.7237c-.54473 1.6342-2.90522 3.2682-4.17625 2.7236-1.27103-.5447-3.63152-2.5421-3.63152-2.5421" fill="none" stroke="#2b2b2b"/><path d="m57.19646 210.9388s-5.99202 5.9921-3.0868 6.7183c2.90522.7263 5.99201-4.721 5.99201-4.721s.00001 9.2604 2.54207 7.8078 9.98668-6.7183 9.98668-6.7183 2.54206-.1815 3.08679 0 6.89988 5.6289 11.07615 3.6315c-2.3605 6.1736-5.08414 6.8999-5.08414 6.8999s-4.35783 5.6289-9.98668 4.3578c-5.62886-1.271-7.08147-3.6315-7.08147-3.6315s-4.72097.3631-6.17358-1.8158c-1.45261-2.1788-1.99734-3.4499-1.99734-3.4499s-2.72364 2.7237-3.44994 1.4526c-.72631-1.271 0-8.7157 4.17625-10.5314z" fill="#2b2b2b" fill-rule="evenodd" stroke="#2b2b2b" stroke-linejoin="round" stroke-width="1.25"/><path d="m91.15117 202.5863s-11.07613-3.2683-14.88923 2.1789-2.90521 8.5342-.90788 9.0788" fill="none" stroke="#2b2b2b"/><path d="m92.860111 202.2807c0 1.30588-.934885 2.3645-2.088123 2.3645-1.153239 0-2.088123-1.05862-2.088123-2.3645s.934884-2.3645 2.088123-2.3645c1.153238 0 2.088123 1.05862 2.088123 2.3645z" fill-rule="evenodd"/><path d="m60.6245 230.544s4.51644 6.9483 9.90143 8.8592c5.38498 1.9109-3.73475 3.561-9.11973-.0869-3.90846-5.2981-2.86621-9.1196-2.86621-9.1196s1.04226-1.0424 2.08451.3473z" fill="#2b2b2b" fill-rule="evenodd" stroke="#2b2b2b"/><path d="m99.2748 271.5394s-12.68078-17.6314-16.32867-18.5869c-3.64789-.9554 2.77936-1.737 6.68781 1.9977 3.90845 3.7348-1.04226-6.0798-1.04226-6.0798z" fill="#2b2b2b" fill-rule="evenodd" stroke="#2b2b2b"/><path d="m59.40854 373.4198c4.86385-1.3028 26.05639 12.1596 30.83338 15.547 4.777 3.3874 14.76528 1.216 14.76528 1.216s-4.6033 2.7794-7.4695 3.4742c-2.86619.6948 8.5118.6948 8.5118.6948s-27.09868 7.4695-54.63158-7.0352c-2.51878-11.2911 5.90611-13.81 7.99062-13.8968z" fill="#2b2b2b" fill-rule="evenodd" stroke="#2b2b2b" stroke-linejoin="round" stroke-width="1.25"/><path d="m90.41563 275.8822s-3.56105-.6949-5.38499-2.7794-4.42958-7.2089-7.12207-9.3803c-2.6925-2.1714-16.15495-9.5541-21.01881-9.0329s-6.34039-.5211-6.94837-1.1291-2.60563.2606-2.25822 2.7793c.34742 2.5188-3.73474 8.0775-2.25822 10.6832 1.47653 2.6056 8.4249 13.202 9.81457 13.5493 1.38967.3474.52113 6.1666.52113 6.1666s6.16667 6.2535 7.73006 6.601c1.56338.3474 3.12676 1.4766 2.95305 2.9531s-6.77466 9.554-6.77466 9.554-7.12207 3.7347-7.20893 5.8192c-.08685 2.0845 1.73709 6.4273 7.38264 7.817 5.64555 1.3896 20.84509.2605 21.62679-1.0423s1.99765-9.1197 1.47653-9.9014c-.52113-.7817-4.25587-3.1267-6.16667-2.7793-1.9108.3473-3.6479 1.9107-3.47419 2.2581.17371.3475-2.69249 1.824-2.69249.4344 0-1.3897 5.64555-7.6433 6.16668-7.1222.52113.5212 8.51175 1.3029 9.98828 5.2982s1.47652 6.8615 5.64554 6.4272c4.16903-.4342 9.98832-4.2558 10.50942-12.2465.5211-7.9906-4.69016-13.3756-5.99298-14.1573-1.30281-.7817-5.64555-3.3873-5.99296-4.6033-.34742-1.2159-1.21596-5.2112-.52113-6.1666z" fill="#2b2b2b" fill-rule="evenodd" stroke="#2b2b2b"/><path d="m15.28641 311.1451s13.46246-3.4742 16.93664-3.3873c3.47419.0869 16.58923 6.1667 20.41083 9.9014s11.6385 12.5938 16.76294 11.8122c5.12442-.7816 6.60094-1.8238 6.60094-1.8238l-1.99765 3.8215s-4.16902 1.1291-6.25353.608c-2.08451-.5212-6.16668-1.8239-10.24884-5.8193-4.08216-3.9953-16.67608-14.7653-27.3592-13.9836-10.68311.7817-16.84979 11.2911-16.84979 11.2911s.08686-5.1245.52113-6.2535c.43427-1.1291-2.25822 2.4319-2.25822 2.4319z" fill="#2b2b2b" fill-rule="evenodd" stroke="#2b2b2b"/><path d="m64.88038 321.5677c.08685.0868 3.38733.9554 8.94602.9554s8.51175-2.432 8.51175-2.432l-.34742-2.1714.86855-3.0398s4.25588 4.3427 4.16902 5.2112c-.08686.8686-1.7371 1.216-1.7371 1.216l-.60797-2.0845-1.47653 1.824s-8.07748 6.4272-12.50707 5.4718c-4.42958-.9555-8.51174-3.8217-7.38263-4.5165s1.73709-.4342 1.56338-.4342z" fill="#2b2b2b" fill-rule="evenodd" stroke="#2b2b2b"/><path d="m45.25124 332.9456s-4.86386-.0868-7.03522.9554c-2.17137 1.0423-2.95306 2.3451-4.42958 2.1714-1.47653-.1738-2.60564-2.0846-2.17137-2.8663.60798-1.216 3.47418-2.7793 8.94602-2.345s4.69015 2.0845 4.69015 2.0845z" fill="#2b2b2b" fill-rule="evenodd" stroke="#2b2b2b"/><path d="m62.27474 346.1475c0-.2605-.34742-7.1221-3.03991-9.9014s-5.99296-2.7794-7.46949-2.432c-1.47653.3475 5.47183 3.3873 6.16667 5.385s2.95306 7.5565 2.34508 8.9461c-.60799 1.3896-1.73709-3.9085-5.99297-5.385s-10.16199-.6948-8.94602 1.216c1.21596 1.9108 5.99296.1736 8.42489 4.2558s4.25588 8.4249 4.25588 8.4249l.78169-2.953 2.17136-.608.26057-5.6456z" fill="#2b2b2b" fill-rule="evenodd" stroke="#2b2b2b"/><path d="m58.80056 368.3823-4.42958-8.8592s-1.38967-5.6455-5.12443-7.2089c-3.73475-1.5634-8.68546-1.3028-8.77231.608-.08686 1.9108 7.99062 4.3427 8.51175 5.385.52113 1.0422.26056 2.7793-.43427 2.8662-.69484.0868-4.25588-1.3028-6.07982-.8686-1.82395.4343-2.8662 2.7794-5.5587 2.0845-2.69249-.6948-4.95071-9.2935-3.90846-10.162 1.04226-.8685-1.99765 1.5634-2.60563-.6948-.60799-2.2582.86854-9.2935-.17371-10.162-1.04226-.8685-6.07983-3.9084-6.16668-4.5164s.26057-34.568 28.66202-6.4273c-12.15965-14.4178-16.93665-12.8544-19.19487-12.9412-1.65024 0-12.68077.9553-15.46012 15.0257-2.77934 14.0705-6.07982 5.2982-6.07982 5.2982s-.60798 6.0799 2.34508 7.8169c2.95305 1.7371-1.38968 6.7746-1.38968 6.7746s-5.298126-12.9413-4.516435-18.5869c-1.042256 4.5165-.955401 15.7207 5.732405 27.9673 7.81691 8.2511 15.19955 15.8942 34.82869 24.4929 10.3357-15.8075 9.81457-17.7183 9.81457-17.892z" fill="#2b2b2b" fill-rule="evenodd" stroke="#2b2b2b" stroke-linejoin="round" stroke-width="1.25"/><path d="m40.21368 368.4691s5.7324.6949 7.29578 3.648c1.56338 2.953 2.25822 7.4694 2.25822 7.4694.9554-1.9107 1.38968-3.561 3.30048-4.9507s3.30047-1.5634 3.21362-2.6056c-.08686-1.0423-6.07983-7.3826-9.11974-7.7301-3.03991-.3474-8.33804 3.3005-8.33804 3.3005s-.9554 1.3897 1.38968.8685z" fill="#8a9396" fill-rule="evenodd" stroke="#2b2b2b" stroke-linejoin="round" stroke-width="1.25"/><path d="m53.30667 383.4072s14.85596 6.7725 39.32459 7.2095" fill="none" stroke="#8a9396" stroke-linecap="round" stroke-width="1.25"/><path d="m102.9045 314.4536s-1.2783 12.4636-10.86567 37.0712" fill="none" stroke="#2b2b2b" stroke-linecap="round" stroke-width="1.25"/><path d="m100.9871 322.1235s-2.87627 8.9482-10.86574 15.6594" fill="none" stroke="#2b2b2b"/></g></svg>