<svg height="1440" width="2880" xmlns="http://www.w3.org/2000/svg" xmlns:xlink="http://www.w3.org/1999/xlink"><path d="m0 0h2880v1440h-2880z" fill="#ce1126"/><path d="m0 0h1440v720h-1440z" fill="#002b7f"/><path d="m0-1 .587785 1.809017-1.538842-1.118034h1.902114l-1.538842 1.118034z" fill="#fff" transform="matrix(105.14622 0 0 105.14622 720 604.93494)"/><path id="a" d="m0-1 .587785 1.809017-1.538842-1.118034h1.902114l-1.538842 1.118034z" fill="#fff" transform="matrix(84.116958 0 0 82.917961 500 292.918)"/><path d="m0-1 .587785 1.809017-1.538842-1.118034h1.902114l-1.538842 1.118034z" fill="#fff" transform="matrix(78.859659 0 0 77.390097 945 257.3901)"/><use x="220" xlink:href="#a" y="-180"/><path d="m0-1 .587785 1.809017-1.538842-1.118034h1.902114l-1.538842 1.118034z" fill="#fff" transform="matrix(52.573095 0 0 52.573095 830 417.46729)"/></svg>